<svg width="228" height="106" viewBox="0 0 228 106" fill="none" xmlns="http://www.w3.org/2000/svg">
<path d="M130 39.7143L114.234 47.1334C113.675 47.3968 113.024 47.3863 112.473 47.1049L99.0904 40.2711C98.4212 39.9294 98 39.2414 98 38.4899V35.4095C98 33.9301 99.5504 32.9628 100.879 33.613L112.467 39.2837C113.022 39.5554 113.672 39.5551 114.227 39.2831L128.88 32.0999C129.566 31.764 130 31.0673 130 30.3041V26.5955C130 25.1156 128.449 24.1483 127.12 24.7997L114.227 31.1199C113.672 31.3919 113.022 31.3921 112.467 31.1205L99.1209 24.5893C98.4349 24.2537 98 23.5566 98 22.7929V16.9544C98 16.1122 98.5277 15.3602 99.3197 15.0737L112.638 10.2564C113.095 10.0911 113.596 10.0978 114.049 10.2752L125.58 14.7973C127.228 15.4436 127.286 17.7547 125.672 18.4824L114.182 23.6644C113.652 23.9034 113.044 23.9 112.517 23.6549L102.5 19" stroke="#4E0606" stroke-width="2.5" stroke-linecap="round"/>
<line x1="102.262" y1="22.3723" x2="110.699" y2="26.3094" stroke="#4E0606" stroke-width="1.5" stroke-linecap="round"/>
<path d="M101.918 29.9183L111.061 34.4897" stroke="#4E0606" stroke-width="1.5" stroke-linecap="round"/>
<line x1="102.262" y1="38.0457" x2="110.699" y2="41.9828" stroke="#4E0606" stroke-width="1.5" stroke-linecap="round"/>
<path d="M43.888 78.551H35.568V77.655H36.848C37.488 77.655 37.8933 77.5377 38.064 77.303C38.2347 77.047 38.32 76.695 38.32 76.247V58.967C38.32 58.647 38.2987 58.4017 38.256 58.231C38.2133 58.039 38.0747 57.8684 37.84 57.719C37.6267 57.5697 37.296 57.495 36.848 57.495H34.928C33.7973 57.495 32.9227 57.847 32.304 58.551C31.7067 59.2337 31.3867 59.9697 31.344 60.759L30.448 60.567L30.768 56.151H48.752L49.072 60.567L48.176 60.759C48.1333 59.991 47.8027 59.255 47.184 58.551C46.5653 57.847 45.7013 57.495 44.592 57.495H42.672C42.2027 57.495 41.8507 57.5804 41.616 57.751C41.3813 57.9004 41.2427 58.0604 41.2 58.231C41.1573 58.4017 41.136 58.647 41.136 58.967V76.247C41.136 76.5457 41.1573 76.7804 41.2 76.951C41.2427 77.1217 41.3813 77.2817 41.616 77.431C41.8507 77.5804 42.2027 77.655 42.672 77.655H43.888V78.551ZM61.882 74.647L62.458 75.223C61.0927 77.7404 58.6393 78.999 55.098 78.999C53.4553 78.999 52.0473 78.2737 50.874 76.823C49.722 75.3724 49.146 73.751 49.146 71.959C49.146 69.5484 49.9247 67.4897 51.482 65.783C53.0607 64.055 54.97 63.191 57.21 63.191C58.2767 63.191 59.2153 63.5004 60.026 64.119C61.4767 65.2497 62.202 66.711 62.202 68.503C62.202 68.759 62.1487 69.0684 62.042 69.431C61.9567 69.7937 61.882 69.975 61.818 69.975L51.514 70.295C51.514 71.959 52.0367 73.495 53.082 74.903C54.1273 76.311 55.3967 77.015 56.89 77.015C57.9567 77.015 58.938 76.8017 59.834 76.375C60.7513 75.927 61.434 75.351 61.882 74.647ZM51.834 69.015L59.322 68.695C59.3647 68.695 59.386 68.503 59.386 68.119C59.386 67.0097 59.0553 66.2204 58.394 65.751C57.754 65.2817 56.858 65.047 55.706 65.047C54.5753 65.047 53.6473 65.399 52.922 66.103C52.1967 66.807 51.834 67.7777 51.834 69.015ZM77.3195 74.647L77.8955 75.223C76.5302 77.7404 74.0768 78.999 70.5355 78.999C68.8928 78.999 67.4848 78.2737 66.3115 76.823C65.1595 75.3724 64.5835 73.751 64.5835 71.959C64.5835 70.807 64.8608 69.655 65.4155 68.503C65.9915 67.3297 66.5782 66.4017 67.1755 65.719C67.7942 65.015 68.6262 64.4177 69.6715 63.927C70.7382 63.4364 71.8582 63.191 73.0315 63.191C74.2048 63.191 75.4208 63.4257 76.6795 63.895L76.4875 66.839H75.5275C75.5275 66.2844 75.1755 65.8257 74.4715 65.463C73.7888 65.1004 73.0208 64.919 72.1675 64.919C71.3142 64.919 70.5462 65.0577 69.8635 65.335C69.1808 65.591 68.6582 65.911 68.2955 66.295C67.9542 66.679 67.6768 67.1377 67.4635 67.671C67.1222 68.4604 66.9515 69.335 66.9515 70.295C66.9515 71.959 67.4742 73.495 68.5195 74.903C69.5648 76.311 70.8342 77.015 72.3275 77.015C73.3942 77.015 74.3755 76.8017 75.2715 76.375C76.1888 75.927 76.8715 75.351 77.3195 74.647ZM96.3188 78.551H90.8148V77.655H90.9428C91.1774 77.655 91.3694 77.5377 91.5188 77.303C91.6894 77.0684 91.7748 76.7804 91.7748 76.439V68.311C91.7748 67.351 91.5401 66.6257 91.0708 66.135C90.6228 65.623 89.9828 65.367 89.1508 65.367C87.9561 65.367 86.9001 66.007 85.9828 67.287C85.0654 68.567 84.6068 69.527 84.6068 70.167V76.247C84.6068 76.5884 84.6174 76.8337 84.6388 76.983C84.6814 77.1324 84.8094 77.2817 85.0228 77.431C85.2361 77.5804 85.5668 77.655 86.0148 77.655H86.5908V78.551H80.1268V77.655H80.6388C81.2148 77.655 81.5774 77.559 81.7268 77.367C81.8974 77.175 81.9828 76.8657 81.9828 76.439V66.839C81.9828 66.4337 81.8441 66.1457 81.5668 65.975C81.3108 65.783 80.8308 65.687 80.1268 65.687V64.791C80.5534 64.791 81.1934 64.6417 82.0468 64.343C82.9214 64.023 83.5828 63.7244 84.0308 63.447L84.6068 63.319V67.415C85.0974 66.071 85.8548 65.0364 86.8788 64.311C87.9028 63.5644 89.1508 63.191 90.6228 63.191C91.3908 63.191 92.0414 63.3617 92.5748 63.703C93.1081 64.0444 93.4921 64.4817 93.7268 65.015C94.1321 65.9324 94.3348 66.839 94.3348 67.735V76.375C94.3348 76.6737 94.3561 76.8977 94.3988 77.047C94.5054 77.4524 94.9534 77.655 95.7428 77.655H96.3188V78.551ZM104.957 78.999C103.079 78.999 101.511 78.295 100.253 76.887C98.9941 75.479 98.3648 73.8364 98.3648 71.959C98.3648 69.5697 99.2608 67.511 101.053 65.783C102.866 64.055 104.775 63.191 106.781 63.191C108.786 63.191 110.397 63.9057 111.613 65.335C112.85 66.743 113.469 68.375 113.469 70.231C113.469 72.5564 112.605 74.6044 110.877 76.375C109.17 78.1244 107.197 78.999 104.957 78.999ZM100.605 70.231C100.605 72.215 101.202 73.8684 102.397 75.191C103.613 76.4924 104.967 77.143 106.461 77.143C107.975 77.143 109.159 76.5777 110.013 75.447C110.866 74.3164 111.293 73.1537 111.293 71.959C111.293 70.1457 110.727 68.567 109.597 67.223C108.487 65.8577 107.133 65.175 105.533 65.175C103.933 65.175 102.706 65.719 101.853 66.807C101.021 67.8737 100.605 69.015 100.605 70.231Z" fill="#E63946"/>
<path d="M124.522 78.999L124.01 79.191L116.138 58.519C115.946 58.0497 115.722 57.6977 115.466 57.463C115.231 57.2284 114.879 57.111 114.41 57.111H113.322V56.151H121.45V57.111H120.362C119.466 57.111 119.018 57.3884 119.018 57.943C119.018 58.199 119.124 58.583 119.338 59.095L125.546 75.223L131.946 58.583L132.266 57.623C132.266 57.4097 132.138 57.271 131.882 57.207C131.626 57.143 131.114 57.111 130.346 57.111H129.642V56.151H135.978V57.111H135.594C134.868 57.111 134.335 57.2284 133.994 57.463C133.674 57.6977 133.418 58.1137 133.226 58.711L126.186 77.015C125.418 77.5697 124.863 78.231 124.522 78.999ZM148.57 74.647L149.146 75.223C147.78 77.7404 145.327 78.999 141.786 78.999C140.143 78.999 138.735 78.2737 137.562 76.823C136.41 75.3724 135.834 73.751 135.834 71.959C135.834 69.5484 136.612 67.4897 138.17 65.783C139.748 64.055 141.658 63.191 143.898 63.191C144.964 63.191 145.903 63.5004 146.714 64.119C148.164 65.2497 148.89 66.711 148.89 68.503C148.89 68.759 148.836 69.0684 148.73 69.431C148.644 69.7937 148.57 69.975 148.506 69.975L138.202 70.295C138.202 71.959 138.724 73.495 139.77 74.903C140.815 76.311 142.084 77.015 143.578 77.015C144.644 77.015 145.626 76.8017 146.522 76.375C147.439 75.927 148.122 75.351 148.57 74.647ZM138.522 69.015L146.01 68.695C146.052 68.695 146.074 68.503 146.074 68.119C146.074 67.0097 145.743 66.2204 145.082 65.751C144.442 65.2817 143.546 65.047 142.394 65.047C141.263 65.047 140.335 65.399 139.61 66.103C138.884 66.807 138.522 67.7777 138.522 69.015ZM158.539 78.551H151.627V77.655H152.139C152.715 77.655 153.077 77.559 153.227 77.367C153.397 77.175 153.483 76.8657 153.483 76.439V66.839C153.483 66.4337 153.344 66.1457 153.067 65.975C152.811 65.783 152.331 65.687 151.627 65.687V64.791C152.053 64.791 152.693 64.6417 153.547 64.343C154.421 64.023 155.083 63.7244 155.531 63.447L156.107 63.319V67.287C156.875 65.6017 157.749 64.4924 158.731 63.959C159.712 63.4044 161.163 63.127 163.083 63.127L162.891 66.839H161.931C161.931 66.5404 161.813 66.2524 161.579 65.975C161.365 65.6977 161.013 65.559 160.523 65.559C159.456 65.559 158.453 66.135 157.515 67.287C156.576 68.439 156.107 69.5484 156.107 70.615V76.247C156.107 76.5884 156.117 76.8337 156.139 76.983C156.181 77.1324 156.309 77.2817 156.523 77.431C156.736 77.5804 157.067 77.655 157.515 77.655H158.539V78.551ZM165.91 77.015V57.431C165.91 57.0257 165.771 56.7377 165.494 56.567C165.238 56.375 164.758 56.279 164.054 56.279V55.383C164.523 55.383 165.184 55.2657 166.038 55.031C166.912 54.7964 167.552 54.551 167.958 54.295L168.534 54.167V67.415C168.96 66.1777 169.675 65.1644 170.678 64.375C171.68 63.5857 172.918 63.191 174.39 63.191C175.883 63.191 177.056 63.6817 177.91 64.663C178.784 65.623 179.222 66.9244 179.222 68.567C179.222 71.575 178.432 74.071 176.854 76.055C175.275 78.0177 173.334 78.999 171.03 78.999C170.219 78.999 169.28 78.7537 168.214 78.263C167.168 77.7724 166.4 77.3564 165.91 77.015ZM168.534 69.975V75.671C168.726 76.055 169.024 76.407 169.43 76.727C170.198 77.303 170.923 77.591 171.606 77.591C173.142 77.591 174.432 76.855 175.478 75.383C176.523 73.8897 177.046 72.023 177.046 69.783C177.046 68.503 176.662 67.447 175.894 66.615C175.147 65.783 174.187 65.367 173.014 65.367C171.862 65.367 170.827 66.0177 169.91 67.319C168.992 68.599 168.534 69.4844 168.534 69.975ZM187.926 78.999C186.048 78.999 184.48 78.295 183.222 76.887C181.963 75.479 181.334 73.8364 181.334 71.959C181.334 69.5697 182.23 67.511 184.022 65.783C185.835 64.055 187.744 63.191 189.75 63.191C191.755 63.191 193.366 63.9057 194.582 65.335C195.819 66.743 196.438 68.375 196.438 70.231C196.438 72.5564 195.574 74.6044 193.846 76.375C192.139 78.1244 190.166 78.999 187.926 78.999ZM183.574 70.231C183.574 72.215 184.171 73.8684 185.366 75.191C186.582 76.4924 187.936 77.143 189.43 77.143C190.944 77.143 192.128 76.5777 192.982 75.447C193.835 74.3164 194.262 73.1537 194.262 71.959C194.262 70.1457 193.696 68.567 192.566 67.223C191.456 65.8577 190.102 65.175 188.502 65.175C186.902 65.175 185.675 65.719 184.822 66.807C183.99 67.8737 183.574 69.015 183.574 70.231Z" fill="#457B9D"/>
<path d="M14.42 100.551H9.3V99.991H9.94C10.5267 99.991 10.82 99.8044 10.82 99.431C10.82 99.3777 10.7533 99.151 10.62 98.751L9.26 95.191H4.22L2.9 98.591C2.9 98.6177 2.85333 98.7844 2.76 99.091C2.66667 99.3844 2.62 99.591 2.62 99.711C2.62 99.8177 2.69333 99.891 2.84 99.931C2.98667 99.971 3.3 99.991 3.78 99.991H4.1V100.551H0.18V99.991H0.46C0.9 99.991 1.22 99.9177 1.42 99.771C1.62 99.611 1.79333 99.351 1.94 98.991L6.34 87.511C6.40667 87.4977 6.52667 87.4044 6.7 87.231C6.87333 87.0444 7.03333 86.8577 7.18 86.671C7.32667 86.471 7.4 86.3577 7.4 86.331C7.4 86.3044 7.39333 86.2844 7.38 86.271L7.66 86.191L12.58 99.071C12.7267 99.3777 12.8733 99.611 13.02 99.771C13.18 99.9177 13.4067 99.991 13.7 99.991H14.42V100.551ZM8.9 94.351L6.74 88.631L4.54 94.351H8.9ZM19.4689 105.231H15.4289V104.631H15.6689C15.9622 104.631 16.1756 104.584 16.3089 104.491C16.4556 104.398 16.5356 104.304 16.5489 104.211C16.5756 104.118 16.5889 103.964 16.5889 103.751V93.391C16.5889 92.7777 16.2022 92.471 15.4289 92.471V91.951C15.6822 91.951 16.0822 91.851 16.6289 91.651C17.1756 91.4377 17.5756 91.2444 17.8289 91.071L18.1889 91.031V93.551C18.4689 92.791 18.9222 92.171 19.5489 91.691C20.1756 91.1977 20.9489 90.951 21.8689 90.951C22.7889 90.951 23.5156 91.251 24.0489 91.851C24.5956 92.451 24.8689 93.2577 24.8689 94.271C24.8689 96.151 24.3756 97.7177 23.3889 98.971C22.4022 100.211 21.2022 100.831 19.7889 100.831C19.2956 100.831 18.7622 100.698 18.1889 100.431V103.831C18.1889 104.018 18.2022 104.158 18.2289 104.251C18.2956 104.504 18.5756 104.631 19.0689 104.631H19.4689V105.231ZM18.1889 95.191V98.751C18.2422 98.831 18.3222 98.9377 18.4289 99.071C18.5356 99.2044 18.7556 99.3777 19.0889 99.591C19.4356 99.8044 19.7889 99.911 20.1489 99.911C21.1222 99.911 21.9289 99.451 22.5689 98.531C23.2222 97.611 23.5489 96.4444 23.5489 95.031C23.5489 94.2444 23.3022 93.5977 22.8089 93.091C22.3289 92.571 21.7222 92.311 20.9889 92.311C20.2689 92.311 19.6222 92.7177 19.0489 93.531C18.4756 94.331 18.1889 94.8844 18.1889 95.191ZM30.7273 100.551H26.4073V99.991H26.7273C27.0873 99.991 27.314 99.931 27.4073 99.811C27.514 99.691 27.5673 99.4977 27.5673 99.231V93.231C27.5673 92.9777 27.4807 92.7977 27.3073 92.691C27.1473 92.571 26.8473 92.511 26.4073 92.511V91.951C26.674 91.951 27.074 91.8577 27.6073 91.671C28.154 91.471 28.5673 91.2844 28.8473 91.111L29.2073 91.031V93.511C29.6873 92.4577 30.234 91.7644 30.8473 91.431C31.4607 91.0844 32.3673 90.911 33.5673 90.911L33.4473 93.231H32.8473C32.8473 93.0444 32.774 92.8644 32.6273 92.691C32.494 92.5177 32.274 92.431 31.9673 92.431C31.3007 92.431 30.674 92.791 30.0873 93.511C29.5007 94.231 29.2073 94.9244 29.2073 95.591V99.111C29.2073 99.3244 29.214 99.4777 29.2273 99.571C29.254 99.6644 29.334 99.7577 29.4673 99.851C29.6007 99.9444 29.8073 99.991 30.0873 99.991H30.7273V100.551ZM42.1333 98.111L42.4933 98.471C41.6399 100.044 40.1066 100.831 37.8933 100.831C36.8666 100.831 35.9866 100.378 35.2533 99.471C34.5333 98.5644 34.1733 97.551 34.1733 96.431C34.1733 94.9244 34.6599 93.6377 35.6333 92.571C36.6199 91.491 37.8133 90.951 39.2133 90.951C39.8799 90.951 40.4666 91.1444 40.9733 91.531C41.8799 92.2377 42.3333 93.151 42.3333 94.271C42.3333 94.431 42.2999 94.6244 42.2333 94.851C42.1799 95.0777 42.1333 95.191 42.0933 95.191L35.6533 95.391C35.6533 96.431 35.9799 97.391 36.6333 98.271C37.2866 99.151 38.0799 99.591 39.0133 99.591C39.6799 99.591 40.2933 99.4577 40.8533 99.191C41.4266 98.911 41.8533 98.551 42.1333 98.111ZM35.8533 94.591L40.5333 94.391C40.5599 94.391 40.5733 94.271 40.5733 94.031C40.5733 93.3377 40.3666 92.8444 39.9533 92.551C39.5533 92.2577 38.9933 92.111 38.2733 92.111C37.5666 92.111 36.9866 92.331 36.5333 92.771C36.0799 93.211 35.8533 93.8177 35.8533 94.591ZM54.2617 100.551H50.8217V99.991H50.9017C51.0484 99.991 51.1684 99.9177 51.2617 99.771C51.3684 99.6244 51.4217 99.4444 51.4217 99.231V94.151C51.4217 93.551 51.2751 93.0977 50.9817 92.791C50.7017 92.471 50.3017 92.311 49.7817 92.311C49.0351 92.311 48.3751 92.711 47.8017 93.511C47.2284 94.311 46.9417 94.911 46.9417 95.311V99.111C46.9417 99.3244 46.9484 99.4777 46.9617 99.571C46.9884 99.6644 47.0684 99.7577 47.2017 99.851C47.3351 99.9444 47.5417 99.991 47.8217 99.991H48.1817V100.551H44.1417V99.991H44.4617C44.8217 99.991 45.0484 99.931 45.1417 99.811C45.2484 99.691 45.3017 99.4977 45.3017 99.231V93.231C45.3017 92.9777 45.2151 92.7977 45.0417 92.691C44.8817 92.571 44.5817 92.511 44.1417 92.511V91.951C44.4084 91.951 44.8084 91.8577 45.3417 91.671C45.8884 91.471 46.3017 91.2844 46.5817 91.111L46.9417 91.031V93.591C47.2484 92.751 47.7217 92.1044 48.3617 91.651C49.0017 91.1844 49.7817 90.951 50.7017 90.951C51.1817 90.951 51.5884 91.0577 51.9217 91.271C52.2551 91.4844 52.4951 91.7577 52.6417 92.091C52.8951 92.6644 53.0217 93.231 53.0217 93.791V99.191C53.0217 99.3777 53.0351 99.5177 53.0617 99.611C53.1284 99.8644 53.4084 99.991 53.9017 99.991H54.2617V100.551ZM65.1005 100.551H62.2205V98.231C61.9405 98.991 61.4871 99.6177 60.8605 100.111C60.2338 100.591 59.4538 100.831 58.5205 100.831C57.6005 100.831 56.8738 100.531 56.3405 99.931C55.8071 99.331 55.5405 98.5244 55.5405 97.511C55.5405 95.631 56.0271 94.071 57.0005 92.831C57.9871 91.5777 59.1938 90.951 60.6205 90.951C60.9405 90.951 61.4738 91.0844 62.2205 91.351V87.351C62.2205 87.0977 62.1338 86.9177 61.9605 86.811C61.7871 86.691 61.4871 86.631 61.0605 86.631V86.071C61.3405 86.071 61.7538 85.9977 62.3005 85.851C62.8471 85.7044 63.2338 85.551 63.4605 85.391L63.8205 85.311V99.191C63.8205 99.4444 63.8671 99.631 63.9605 99.751C64.0671 99.8577 64.3138 99.911 64.7005 99.911H65.1005V100.551ZM62.2205 96.591V93.031C62.1671 92.951 62.0871 92.8444 61.9805 92.711C61.8738 92.5777 61.6471 92.4044 61.3005 92.191C60.9671 91.9777 60.6205 91.871 60.2605 91.871C59.2871 91.871 58.4738 92.331 57.8205 93.251C57.1805 94.171 56.8605 95.3377 56.8605 96.751C56.8605 97.5377 57.0938 98.191 57.5605 98.711C58.0405 99.2177 58.6471 99.471 59.3805 99.471C60.1271 99.471 60.7871 99.071 61.3605 98.271C61.9338 97.4577 62.2205 96.8977 62.2205 96.591ZM75.4184 100.551H72.5384V98.951C71.8718 99.671 71.3184 100.164 70.8784 100.431C70.4384 100.698 69.8384 100.831 69.0784 100.831C68.3318 100.831 67.7451 100.658 67.3184 100.311C66.9051 99.951 66.6984 99.451 66.6984 98.811C66.6984 98.171 66.9718 97.551 67.5184 96.951C68.0784 96.3377 68.7251 95.8777 69.4584 95.571C70.2051 95.251 70.8584 95.011 71.4184 94.851C71.9784 94.6777 72.3518 94.591 72.5384 94.591V94.151C72.5384 92.8977 72.0184 92.271 70.9784 92.271C70.2584 92.271 69.5851 92.4244 68.9584 92.731C68.3451 93.0377 67.8851 93.431 67.5784 93.911L67.1784 93.551C68.0718 91.8177 69.6184 90.951 71.8184 90.951C72.3784 90.951 72.8384 91.1044 73.1984 91.411C73.5718 91.7044 73.8184 92.051 73.9384 92.451C74.0718 92.851 74.1384 93.2977 74.1384 93.791V99.191C74.1384 99.3644 74.1518 99.4977 74.1784 99.591C74.2051 99.6844 74.2851 99.7777 74.4184 99.871C74.5651 99.951 74.7784 99.991 75.0584 99.991H75.4184V100.551ZM72.5384 97.831V95.391C71.4984 95.591 70.5318 95.991 69.6384 96.591C68.7451 97.191 68.2984 97.8444 68.2984 98.551C68.2984 98.831 68.4318 99.0777 68.6984 99.291C68.9784 99.491 69.3184 99.591 69.7184 99.591C70.1318 99.591 70.6184 99.411 71.1784 99.051C71.7384 98.6777 72.1918 98.271 72.5384 97.831ZM77.6538 103.431L77.3338 103.031C78.0671 102.471 78.5204 101.738 78.6938 100.831C78.4138 100.831 78.1871 100.738 78.0138 100.551C77.8538 100.378 77.7738 100.138 77.7738 99.831C77.7738 99.511 77.9004 99.2377 78.1538 99.011C78.4071 98.7844 78.6871 98.671 78.9938 98.671C79.3004 98.671 79.5338 98.7577 79.6938 98.931C79.8538 99.1044 79.9338 99.3244 79.9338 99.591C79.9338 100.204 79.7671 100.804 79.4338 101.391C79.1138 101.991 78.8071 102.424 78.5138 102.691C78.2338 102.971 77.9471 103.218 77.6538 103.431ZM94.1645 98.111L94.5245 98.471C93.6712 100.044 92.1379 100.831 89.9245 100.831C88.8979 100.831 88.0179 100.378 87.2845 99.471C86.5645 98.5644 86.2045 97.551 86.2045 96.431C86.2045 94.9244 86.6912 93.6377 87.6645 92.571C88.6512 91.491 89.8445 90.951 91.2445 90.951C91.9112 90.951 92.4979 91.1444 93.0045 91.531C93.9112 92.2377 94.3645 93.151 94.3645 94.271C94.3645 94.431 94.3312 94.6244 94.2645 94.851C94.2112 95.0777 94.1645 95.191 94.1245 95.191L87.6845 95.391C87.6845 96.431 88.0112 97.391 88.6645 98.271C89.3179 99.151 90.1112 99.591 91.0445 99.591C91.7112 99.591 92.3245 99.4577 92.8845 99.191C93.4579 98.911 93.8845 98.551 94.1645 98.111ZM87.8845 94.591L92.5645 94.391C92.5912 94.391 92.6045 94.271 92.6045 94.031C92.6045 93.3377 92.3979 92.8444 91.9845 92.551C91.5845 92.2577 91.0245 92.111 90.3045 92.111C89.5979 92.111 89.0179 92.331 88.5645 92.771C88.1112 93.211 87.8845 93.8177 87.8845 94.591ZM106.293 100.551H102.853V99.991H102.933C103.08 99.991 103.2 99.9177 103.293 99.771C103.4 99.6244 103.453 99.4444 103.453 99.231V94.151C103.453 93.551 103.306 93.0977 103.013 92.791C102.733 92.471 102.333 92.311 101.813 92.311C101.066 92.311 100.406 92.711 99.833 93.511C99.2596 94.311 98.973 94.911 98.973 95.311V99.111C98.973 99.3244 98.9796 99.4777 98.993 99.571C99.0196 99.6644 99.0996 99.7577 99.233 99.851C99.3663 99.9444 99.573 99.991 99.853 99.991H100.213V100.551H96.173V99.991H96.493C96.853 99.991 97.0796 99.931 97.173 99.811C97.2796 99.691 97.333 99.4977 97.333 99.231V93.231C97.333 92.9777 97.2463 92.7977 97.073 92.691C96.913 92.571 96.613 92.511 96.173 92.511V91.951C96.4396 91.951 96.8396 91.8577 97.373 91.671C97.9196 91.471 98.333 91.2844 98.613 91.111L98.973 91.031V93.591C99.2796 92.751 99.753 92.1044 100.393 91.651C101.033 91.1844 101.813 90.951 102.733 90.951C103.213 90.951 103.62 91.0577 103.953 91.271C104.286 91.4844 104.526 91.7577 104.673 92.091C104.926 92.6644 105.053 93.231 105.053 93.791V99.191C105.053 99.3777 105.066 99.5177 105.093 99.611C105.16 99.8644 105.44 99.991 105.933 99.991H106.293V100.551ZM113.434 99.311L113.594 99.791C112.594 100.484 111.501 100.831 110.314 100.831C109.887 100.831 109.521 100.678 109.214 100.371C108.907 100.064 108.754 99.6577 108.754 99.151V92.071H107.594V91.231H108.034C108.474 91.231 108.881 90.9644 109.254 90.431C109.641 89.8977 109.834 89.4044 109.834 88.951H110.354V91.231H113.074V92.071H111.114C110.607 92.071 110.354 92.311 110.354 92.791V98.511C110.354 99.391 110.674 99.831 111.314 99.831C112.034 99.831 112.741 99.6577 113.434 99.311ZM122.192 98.111L122.552 98.471C121.699 100.044 120.165 100.831 117.952 100.831C116.925 100.831 116.045 100.378 115.312 99.471C114.592 98.5644 114.232 97.551 114.232 96.431C114.232 94.9244 114.719 93.6377 115.692 92.571C116.679 91.491 117.872 90.951 119.272 90.951C119.939 90.951 120.525 91.1444 121.032 91.531C121.939 92.2377 122.392 93.151 122.392 94.271C122.392 94.431 122.359 94.6244 122.292 94.851C122.239 95.0777 122.192 95.191 122.152 95.191L115.712 95.391C115.712 96.431 116.039 97.391 116.692 98.271C117.345 99.151 118.139 99.591 119.072 99.591C119.739 99.591 120.352 99.4577 120.912 99.191C121.485 98.911 121.912 98.551 122.192 98.111ZM115.912 94.591L120.592 94.391C120.619 94.391 120.632 94.271 120.632 94.031C120.632 93.3377 120.425 92.8444 120.012 92.551C119.612 92.2577 119.052 92.111 118.332 92.111C117.625 92.111 117.045 92.331 116.592 92.771C116.139 93.211 115.912 93.8177 115.912 94.591ZM134.32 100.551H130.88V99.991H130.96C131.107 99.991 131.227 99.9177 131.32 99.771C131.427 99.6244 131.48 99.4444 131.48 99.231V94.151C131.48 93.551 131.334 93.0977 131.04 92.791C130.76 92.471 130.36 92.311 129.84 92.311C129.094 92.311 128.434 92.711 127.86 93.511C127.287 94.311 127 94.911 127 95.311V99.111C127 99.3244 127.007 99.4777 127.02 99.571C127.047 99.6644 127.127 99.7577 127.26 99.851C127.394 99.9444 127.6 99.991 127.88 99.991H128.24V100.551H124.2V99.991H124.52C124.88 99.991 125.107 99.931 125.2 99.811C125.307 99.691 125.36 99.4977 125.36 99.231V93.231C125.36 92.9777 125.274 92.7977 125.1 92.691C124.94 92.571 124.64 92.511 124.2 92.511V91.951C124.467 91.951 124.867 91.8577 125.4 91.671C125.947 91.471 126.36 91.2844 126.64 91.111L127 91.031V93.591C127.307 92.751 127.78 92.1044 128.42 91.651C129.06 91.1844 129.84 90.951 130.76 90.951C131.24 90.951 131.647 91.0577 131.98 91.271C132.314 91.4844 132.554 91.7577 132.7 92.091C132.954 92.6644 133.08 93.231 133.08 93.791V99.191C133.08 99.3777 133.094 99.5177 133.12 99.611C133.187 99.8644 133.467 99.991 133.96 99.991H134.32V100.551ZM145.159 100.551H142.279V98.231C141.999 98.991 141.546 99.6177 140.919 100.111C140.292 100.591 139.512 100.831 138.579 100.831C137.659 100.831 136.932 100.531 136.399 99.931C135.866 99.331 135.599 98.5244 135.599 97.511C135.599 95.631 136.086 94.071 137.059 92.831C138.046 91.5777 139.252 90.951 140.679 90.951C140.999 90.951 141.532 91.0844 142.279 91.351V87.351C142.279 87.0977 142.192 86.9177 142.019 86.811C141.846 86.691 141.546 86.631 141.119 86.631V86.071C141.399 86.071 141.812 85.9977 142.359 85.851C142.906 85.7044 143.292 85.551 143.519 85.391L143.879 85.311V99.191C143.879 99.4444 143.926 99.631 144.019 99.751C144.126 99.8577 144.372 99.911 144.759 99.911H145.159V100.551ZM142.279 96.591V93.031C142.226 92.951 142.146 92.8444 142.039 92.711C141.932 92.5777 141.706 92.4044 141.359 92.191C141.026 91.9777 140.679 91.871 140.319 91.871C139.346 91.871 138.532 92.331 137.879 93.251C137.239 94.171 136.919 95.3377 136.919 96.751C136.919 97.5377 137.152 98.191 137.619 98.711C138.099 99.2177 138.706 99.471 139.439 99.471C140.186 99.471 140.846 99.071 141.419 98.271C141.992 97.4577 142.279 96.8977 142.279 96.591ZM155.477 100.551H152.597V98.951C151.93 99.671 151.377 100.164 150.937 100.431C150.497 100.698 149.897 100.831 149.137 100.831C148.39 100.831 147.804 100.658 147.377 100.311C146.964 99.951 146.757 99.451 146.757 98.811C146.757 98.171 147.03 97.551 147.577 96.951C148.137 96.3377 148.784 95.8777 149.517 95.571C150.264 95.251 150.917 95.011 151.477 94.851C152.037 94.6777 152.41 94.591 152.597 94.591V94.151C152.597 92.8977 152.077 92.271 151.037 92.271C150.317 92.271 149.644 92.4244 149.017 92.731C148.404 93.0377 147.944 93.431 147.637 93.911L147.237 93.551C148.13 91.8177 149.677 90.951 151.877 90.951C152.437 90.951 152.897 91.1044 153.257 91.411C153.63 91.7044 153.877 92.051 153.997 92.451C154.13 92.851 154.197 93.2977 154.197 93.791V99.191C154.197 99.3644 154.21 99.4977 154.237 99.591C154.264 99.6844 154.344 99.7777 154.477 99.871C154.624 99.951 154.837 99.991 155.117 99.991H155.477V100.551ZM152.597 97.831V95.391C151.557 95.591 150.59 95.991 149.697 96.591C148.804 97.191 148.357 97.8444 148.357 98.551C148.357 98.831 148.49 99.0777 148.757 99.291C149.037 99.491 149.377 99.591 149.777 99.591C150.19 99.591 150.677 99.411 151.237 99.051C151.797 98.6777 152.25 98.271 152.597 97.831ZM157.712 103.431L157.392 103.031C158.126 102.471 158.579 101.738 158.752 100.831C158.472 100.831 158.246 100.738 158.072 100.551C157.912 100.378 157.832 100.138 157.832 99.831C157.832 99.511 157.959 99.2377 158.212 99.011C158.466 98.7844 158.746 98.671 159.052 98.671C159.359 98.671 159.592 98.7577 159.752 98.931C159.912 99.1044 159.992 99.3244 159.992 99.591C159.992 100.204 159.826 100.804 159.492 101.391C159.172 101.991 158.866 102.424 158.572 102.691C158.292 102.971 158.006 103.218 157.712 103.431ZM170.903 100.551H166.583V99.991H166.903C167.263 99.991 167.49 99.931 167.583 99.811C167.69 99.691 167.743 99.4977 167.743 99.231V93.231C167.743 92.9777 167.656 92.7977 167.483 92.691C167.323 92.571 167.023 92.511 166.583 92.511V91.951C166.85 91.951 167.25 91.8577 167.783 91.671C168.33 91.471 168.743 91.2844 169.023 91.111L169.383 91.031V93.511C169.863 92.4577 170.41 91.7644 171.023 91.431C171.636 91.0844 172.543 90.911 173.743 90.911L173.623 93.231H173.023C173.023 93.0444 172.95 92.8644 172.803 92.691C172.67 92.5177 172.45 92.431 172.143 92.431C171.476 92.431 170.85 92.791 170.263 93.511C169.676 94.231 169.383 94.9244 169.383 95.591V99.111C169.383 99.3244 169.39 99.4777 169.403 99.571C169.43 99.6644 169.51 99.7577 169.643 99.851C169.776 99.9444 169.983 99.991 170.263 99.991H170.903V100.551ZM182.309 98.111L182.669 98.471C181.816 100.044 180.282 100.831 178.069 100.831C177.042 100.831 176.162 100.378 175.429 99.471C174.709 98.5644 174.349 97.551 174.349 96.431C174.349 94.9244 174.836 93.6377 175.809 92.571C176.796 91.491 177.989 90.951 179.389 90.951C180.056 90.951 180.642 91.1444 181.149 91.531C182.056 92.2377 182.509 93.151 182.509 94.271C182.509 94.431 182.476 94.6244 182.409 94.851C182.356 95.0777 182.309 95.191 182.269 95.191L175.829 95.391C175.829 96.431 176.156 97.391 176.809 98.271C177.462 99.151 178.256 99.591 179.189 99.591C179.856 99.591 180.469 99.4577 181.029 99.191C181.602 98.911 182.029 98.551 182.309 98.111ZM176.029 94.591L180.709 94.391C180.736 94.391 180.749 94.271 180.749 94.031C180.749 93.3377 180.542 92.8444 180.129 92.551C179.729 92.2577 179.169 92.111 178.449 92.111C177.742 92.111 177.162 92.331 176.709 92.771C176.256 93.211 176.029 93.8177 176.029 94.591ZM184.318 99.991L184.518 97.831L185.078 97.871C185.078 98.3244 185.371 98.7577 185.958 99.171C186.544 99.5844 187.178 99.791 187.858 99.791C189.258 99.791 189.958 99.3644 189.958 98.511C189.958 98.0844 189.778 97.7044 189.418 97.371C189.058 97.0377 188.624 96.7644 188.118 96.551C187.611 96.3244 187.104 96.0977 186.598 95.871C186.091 95.631 185.658 95.3244 185.298 94.951C184.938 94.5644 184.757 94.1244 184.757 93.631C184.757 91.8977 186.038 91.031 188.598 91.031C189.171 91.031 189.798 91.191 190.478 91.511L190.358 93.511H189.878C189.878 93.1377 189.658 92.7777 189.218 92.431C188.791 92.0844 188.324 91.911 187.818 91.911C187.311 91.911 186.878 92.011 186.518 92.211C186.171 92.411 185.998 92.711 185.998 93.111C185.998 93.4977 186.178 93.8177 186.538 94.071C186.898 94.3244 187.331 94.531 187.838 94.691C188.344 94.851 188.851 95.031 189.358 95.231C189.864 95.431 190.298 95.7577 190.658 96.211C191.018 96.6644 191.198 97.231 191.198 97.911C191.198 98.591 190.978 99.1577 190.538 99.611C189.751 100.424 188.611 100.831 187.118 100.831C185.958 100.831 185.024 100.551 184.318 99.991ZM196.711 100.831C195.538 100.831 194.558 100.391 193.771 99.511C192.985 98.631 192.591 97.6044 192.591 96.431C192.591 94.9377 193.151 93.651 194.271 92.571C195.405 91.491 196.598 90.951 197.851 90.951C199.105 90.951 200.111 91.3977 200.871 92.291C201.645 93.171 202.031 94.191 202.031 95.351C202.031 96.8044 201.491 98.0844 200.411 99.191C199.345 100.284 198.111 100.831 196.711 100.831ZM193.991 95.351C193.991 96.591 194.365 97.6244 195.111 98.451C195.871 99.2644 196.718 99.671 197.651 99.671C198.598 99.671 199.338 99.3177 199.871 98.611C200.405 97.9044 200.671 97.1777 200.671 96.431C200.671 95.2977 200.318 94.311 199.611 93.471C198.918 92.6177 198.071 92.191 197.071 92.191C196.071 92.191 195.305 92.531 194.771 93.211C194.251 93.8777 193.991 94.591 193.991 95.351ZM207.358 100.551H203.358V99.991H203.638C203.931 99.991 204.144 99.931 204.278 99.811C204.411 99.6777 204.478 99.4577 204.478 99.151V87.351C204.478 87.0977 204.391 86.9177 204.218 86.811C204.044 86.691 203.744 86.631 203.318 86.631V86.071C203.584 86.071 203.991 85.9977 204.538 85.851C205.098 85.7044 205.504 85.551 205.758 85.391L206.118 85.311V99.111C206.118 99.3244 206.124 99.4777 206.138 99.571C206.164 99.6644 206.244 99.7577 206.378 99.851C206.511 99.9444 206.718 99.991 206.998 99.991H207.358V100.551ZM212.564 100.831L209.524 92.711C209.404 92.4044 209.271 92.1844 209.124 92.051C208.991 91.9044 208.777 91.831 208.484 91.831H208.204V91.231H211.924L211.884 91.831H211.684C211.284 91.831 211.084 91.951 211.084 92.191C211.084 92.351 211.097 92.4577 211.124 92.511L213.364 98.391L215.644 92.631C215.751 92.4177 215.804 92.251 215.804 92.131C215.804 92.011 215.731 91.931 215.584 91.891C215.451 91.851 215.137 91.831 214.644 91.831H214.404V91.231H218.164V91.831H218.004C217.577 91.831 217.271 91.8977 217.084 92.031C216.911 92.1644 216.751 92.4177 216.604 92.791L213.964 99.551C213.857 99.551 213.651 99.731 213.344 100.091C213.037 100.438 212.884 100.658 212.884 100.751L212.564 100.831ZM227.059 100.551H224.179V98.951C223.512 99.671 222.959 100.164 222.519 100.431C222.079 100.698 221.479 100.831 220.719 100.831C219.972 100.831 219.386 100.658 218.959 100.311C218.546 99.951 218.339 99.451 218.339 98.811C218.339 98.171 218.612 97.551 219.159 96.951C219.719 96.3377 220.366 95.8777 221.099 95.571C221.846 95.251 222.499 95.011 223.059 94.851C223.619 94.6777 223.992 94.591 224.179 94.591V94.151C224.179 92.8977 223.659 92.271 222.619 92.271C221.899 92.271 221.226 92.4244 220.599 92.731C219.986 93.0377 219.526 93.431 219.219 93.911L218.819 93.551C219.712 91.8177 221.259 90.951 223.459 90.951C224.019 90.951 224.479 91.1044 224.839 91.411C225.212 91.7044 225.459 92.051 225.579 92.451C225.712 92.851 225.779 93.2977 225.779 93.791V99.191C225.779 99.3644 225.792 99.4977 225.819 99.591C225.846 99.6844 225.926 99.7777 226.059 99.871C226.206 99.951 226.419 99.991 226.699 99.991H227.059V100.551ZM224.179 97.831V95.391C223.139 95.591 222.172 95.991 221.279 96.591C220.386 97.191 219.939 97.8444 219.939 98.551C219.939 98.831 220.072 99.0777 220.339 99.291C220.619 99.491 220.959 99.591 221.359 99.591C221.772 99.591 222.259 99.411 222.819 99.051C223.379 98.6777 223.832 98.271 224.179 97.831Z" fill="#171717"/>
</svg>
