<svg width="146" height="65" viewBox="0 0 146 65" fill="none" xmlns="http://www.w3.org/2000/svg">
<path d="M83.2261 20.9913L72.8045 25.8956C72.6645 25.9614 72.502 25.9588 72.3642 25.8885L63.0465 21.1305C62.8792 21.0451 62.7739 20.8731 62.7739 20.6852V16.9926C62.7739 16.6228 63.1615 16.381 63.4937 16.5435L72.3627 20.8837C72.5014 20.9516 72.6638 20.9515 72.8025 20.8835L82.9462 15.9111C83.1175 15.8271 83.2261 15.653 83.2261 15.4622V11.3585C83.2261 10.9885 82.8382 10.7467 82.506 10.9095L72.8025 15.6661C72.6638 15.7341 72.5014 15.7342 72.3627 15.6663L63.0541 11.111C62.8827 11.0271 62.7739 10.8529 62.7739 10.6619V5.89868C62.7739 5.68811 62.9058 5.50011 63.1039 5.42849L72.4054 2.06409C72.5196 2.02278 72.645 2.02445 72.758 2.06879L82.1211 5.74058C82.5331 5.90216 82.5476 6.47992 82.1441 6.66186L72.7913 10.8798C72.6588 10.9396 72.5068 10.9387 72.375 10.8774L65.65 7.75217" stroke="#4E0606" stroke-width="1.6" stroke-linecap="round"/>
<line x1="65.5256" y1="9.89751" x2="70.8803" y2="12.3964" stroke="#4E0606" stroke-linecap="round"/>
<path d="M65.2783 14.7304L71.1217 17.6521" stroke="#4E0606" stroke-linecap="round"/>
<line x1="65.5256" y1="19.9148" x2="70.8803" y2="22.4137" stroke="#4E0606" stroke-linecap="round"/>
<path d="M20.416 47H14.176V46.328H15.136C15.616 46.328 15.92 46.24 16.048 46.064C16.176 45.872 16.24 45.608 16.24 45.272V32.312C16.24 32.072 16.224 31.888 16.192 31.76C16.16 31.616 16.056 31.488 15.88 31.376C15.72 31.264 15.472 31.208 15.136 31.208H13.696C12.848 31.208 12.192 31.472 11.728 32C11.28 32.512 11.04 33.064 11.008 33.656L10.336 33.512L10.576 30.2H24.064L24.304 33.512L23.632 33.656C23.6 33.08 23.352 32.528 22.888 32C22.424 31.472 21.776 31.208 20.944 31.208H19.504C19.152 31.208 18.888 31.272 18.712 31.4C18.536 31.512 18.432 31.632 18.4 31.76C18.368 31.888 18.352 32.072 18.352 32.312V45.272C18.352 45.496 18.368 45.672 18.4 45.8C18.432 45.928 18.536 46.048 18.712 46.16C18.888 46.272 19.152 46.328 19.504 46.328H20.416V47ZM33.9115 44.072L34.3435 44.504C33.3195 46.392 31.4795 47.336 28.8235 47.336C27.5915 47.336 26.5355 46.792 25.6555 45.704C24.7915 44.616 24.3595 43.4 24.3595 42.056C24.3595 40.248 24.9435 38.704 26.1115 37.424C27.2955 36.128 28.7275 35.48 30.4075 35.48C31.2075 35.48 31.9115 35.712 32.5195 36.176C33.6075 37.024 34.1515 38.12 34.1515 39.464C34.1515 39.656 34.1115 39.888 34.0315 40.16C33.9675 40.432 33.9115 40.568 33.8635 40.568L26.1355 40.808C26.1355 42.056 26.5275 43.208 27.3115 44.264C28.0955 45.32 29.0475 45.848 30.1675 45.848C30.9675 45.848 31.7035 45.688 32.3755 45.368C33.0635 45.032 33.5755 44.6 33.9115 44.072ZM26.3755 39.848L31.9915 39.608C32.0235 39.608 32.0395 39.464 32.0395 39.176C32.0395 38.344 31.7915 37.752 31.2955 37.4C30.8155 37.048 30.1435 36.872 29.2795 36.872C28.4315 36.872 27.7355 37.136 27.1915 37.664C26.6475 38.192 26.3755 38.92 26.3755 39.848ZM45.4896 44.072L45.9216 44.504C44.8976 46.392 43.0576 47.336 40.4016 47.336C39.1696 47.336 38.1136 46.792 37.2336 45.704C36.3696 44.616 35.9376 43.4 35.9376 42.056C35.9376 41.192 36.1456 40.328 36.5616 39.464C36.9936 38.584 37.4336 37.888 37.8816 37.376C38.3456 36.848 38.9696 36.4 39.7536 36.032C40.5536 35.664 41.3936 35.48 42.2736 35.48C43.1536 35.48 44.0656 35.656 45.0096 36.008L44.8656 38.216H44.1456C44.1456 37.8 43.8816 37.456 43.3536 37.184C42.8416 36.912 42.2656 36.776 41.6256 36.776C40.9856 36.776 40.4096 36.88 39.8976 37.088C39.3856 37.28 38.9936 37.52 38.7216 37.808C38.4656 38.096 38.2576 38.44 38.0976 38.84C37.8416 39.432 37.7136 40.088 37.7136 40.808C37.7136 42.056 38.1056 43.208 38.8896 44.264C39.6736 45.32 40.6256 45.848 41.7456 45.848C42.5456 45.848 43.2816 45.688 43.9536 45.368C44.6416 45.032 45.1536 44.6 45.4896 44.072ZM59.7391 47H55.6111V46.328H55.7071C55.8831 46.328 56.0271 46.24 56.1391 46.064C56.2671 45.888 56.3311 45.672 56.3311 45.416V39.32C56.3311 38.6 56.1551 38.056 55.8031 37.688C55.4671 37.304 54.9871 37.112 54.3631 37.112C53.4671 37.112 52.6751 37.592 51.9871 38.552C51.2991 39.512 50.9551 40.232 50.9551 40.712V45.272C50.9551 45.528 50.9631 45.712 50.9791 45.824C51.0111 45.936 51.1071 46.048 51.2671 46.16C51.4271 46.272 51.6751 46.328 52.0111 46.328H52.4431V47H47.5951V46.328H47.9791C48.4111 46.328 48.6831 46.256 48.7951 46.112C48.9231 45.968 48.9871 45.736 48.9871 45.416V38.216C48.9871 37.912 48.8831 37.696 48.6751 37.568C48.4831 37.424 48.1231 37.352 47.5951 37.352V36.68C47.9151 36.68 48.3951 36.568 49.0351 36.344C49.6911 36.104 50.1871 35.88 50.5231 35.672L50.9551 35.576V38.648C51.3231 37.64 51.8911 36.864 52.6591 36.32C53.4271 35.76 54.3631 35.48 55.4671 35.48C56.0431 35.48 56.5311 35.608 56.9311 35.864C57.3311 36.12 57.6191 36.448 57.7951 36.848C58.0991 37.536 58.2511 38.216 58.2511 38.888V45.368C58.2511 45.592 58.2671 45.76 58.2991 45.872C58.3791 46.176 58.7151 46.328 59.3071 46.328H59.7391V47ZM66.2176 47.336C64.8096 47.336 63.6336 46.808 62.6896 45.752C61.7456 44.696 61.2736 43.464 61.2736 42.056C61.2736 40.264 61.9456 38.72 63.2896 37.424C64.6496 36.128 66.0816 35.48 67.5856 35.48C69.0896 35.48 70.2976 36.016 71.2096 37.088C72.1376 38.144 72.6016 39.368 72.6016 40.76C72.6016 42.504 71.9536 44.04 70.6576 45.368C69.3776 46.68 67.8976 47.336 66.2176 47.336ZM62.9536 40.76C62.9536 42.248 63.4016 43.488 64.2976 44.48C65.2096 45.456 66.2256 45.944 67.3456 45.944C68.4816 45.944 69.3696 45.52 70.0096 44.672C70.6496 43.824 70.9696 42.952 70.9696 42.056C70.9696 40.696 70.5456 39.512 69.6976 38.504C68.8656 37.48 67.8496 36.968 66.6496 36.968C65.4496 36.968 64.5296 37.376 63.8896 38.192C63.2656 38.992 62.9536 39.848 62.9536 40.76Z" fill="#E63946"/>
<path d="M80.8911 47.336L80.5071 47.48L74.6031 31.976C74.4591 31.624 74.2911 31.36 74.0991 31.184C73.9231 31.008 73.6591 30.92 73.3071 30.92H72.4911V30.2H78.5871V30.92H77.7711C77.0991 30.92 76.7631 31.128 76.7631 31.544C76.7631 31.736 76.8431 32.024 77.0031 32.408L81.6591 44.504L86.4591 32.024L86.6991 31.304C86.6991 31.144 86.6031 31.04 86.4111 30.992C86.2191 30.944 85.8351 30.92 85.2591 30.92H84.7311V30.2H89.4831V30.92H89.1951C88.6511 30.92 88.2511 31.008 87.9951 31.184C87.7551 31.36 87.5631 31.672 87.4191 32.12L82.1391 45.848C81.5631 46.264 81.1471 46.76 80.8911 47.336ZM98.9271 44.072L99.3591 44.504C98.3351 46.392 96.4951 47.336 93.8391 47.336C92.6071 47.336 91.5511 46.792 90.6711 45.704C89.8071 44.616 89.3751 43.4 89.3751 42.056C89.3751 40.248 89.9591 38.704 91.1271 37.424C92.3111 36.128 93.7431 35.48 95.4231 35.48C96.2231 35.48 96.9271 35.712 97.5351 36.176C98.6231 37.024 99.1671 38.12 99.1671 39.464C99.1671 39.656 99.1271 39.888 99.0471 40.16C98.9831 40.432 98.9271 40.568 98.8791 40.568L91.1511 40.808C91.1511 42.056 91.5431 43.208 92.3271 44.264C93.1111 45.32 94.0631 45.848 95.1831 45.848C95.9831 45.848 96.7191 45.688 97.3911 45.368C98.0791 45.032 98.5911 44.6 98.9271 44.072ZM91.3911 39.848L97.0071 39.608C97.0391 39.608 97.0551 39.464 97.0551 39.176C97.0551 38.344 96.8071 37.752 96.3111 37.4C95.8311 37.048 95.1591 36.872 94.2951 36.872C93.4471 36.872 92.7511 37.136 92.2071 37.664C91.6631 38.192 91.3911 38.92 91.3911 39.848ZM106.404 47H101.22V46.328H101.604C102.036 46.328 102.308 46.256 102.42 46.112C102.548 45.968 102.612 45.736 102.612 45.416V38.216C102.612 37.912 102.508 37.696 102.3 37.568C102.108 37.424 101.748 37.352 101.22 37.352V36.68C101.54 36.68 102.02 36.568 102.66 36.344C103.316 36.104 103.812 35.88 104.148 35.672L104.58 35.576V38.552C105.156 37.288 105.812 36.456 106.548 36.056C107.284 35.64 108.372 35.432 109.812 35.432L109.668 38.216H108.948C108.948 37.992 108.86 37.776 108.684 37.568C108.524 37.36 108.26 37.256 107.892 37.256C107.092 37.256 106.34 37.688 105.636 38.552C104.932 39.416 104.58 40.248 104.58 41.048V45.272C104.58 45.528 104.588 45.712 104.604 45.824C104.636 45.936 104.732 46.048 104.892 46.16C105.052 46.272 105.3 46.328 105.636 46.328H106.404V47ZM111.932 45.848V31.16C111.932 30.856 111.828 30.64 111.62 30.512C111.428 30.368 111.068 30.296 110.54 30.296V29.624C110.892 29.624 111.388 29.536 112.028 29.36C112.684 29.184 113.164 29 113.468 28.808L113.9 28.712V38.648C114.22 37.72 114.756 36.96 115.508 36.368C116.26 35.776 117.188 35.48 118.292 35.48C119.412 35.48 120.292 35.848 120.932 36.584C121.588 37.304 121.916 38.28 121.916 39.512C121.916 41.768 121.324 43.64 120.14 45.128C118.956 46.6 117.5 47.336 115.772 47.336C115.164 47.336 114.46 47.152 113.66 46.784C112.876 46.416 112.3 46.104 111.932 45.848ZM113.9 40.568V44.84C114.044 45.128 114.268 45.392 114.572 45.632C115.148 46.064 115.692 46.28 116.204 46.28C117.356 46.28 118.324 45.728 119.108 44.624C119.892 43.504 120.284 42.104 120.284 40.424C120.284 39.464 119.996 38.672 119.42 38.048C118.86 37.424 118.14 37.112 117.26 37.112C116.396 37.112 115.62 37.6 114.932 38.576C114.244 39.536 113.9 40.2 113.9 40.568ZM128.444 47.336C127.036 47.336 125.86 46.808 124.916 45.752C123.972 44.696 123.5 43.464 123.5 42.056C123.5 40.264 124.172 38.72 125.516 37.424C126.876 36.128 128.308 35.48 129.812 35.48C131.316 35.48 132.524 36.016 133.436 37.088C134.364 38.144 134.828 39.368 134.828 40.76C134.828 42.504 134.18 44.04 132.884 45.368C131.604 46.68 130.124 47.336 128.444 47.336ZM125.18 40.76C125.18 42.248 125.628 43.488 126.524 44.48C127.436 45.456 128.452 45.944 129.572 45.944C130.708 45.944 131.596 45.52 132.236 44.672C132.876 43.824 133.196 42.952 133.196 42.056C133.196 40.696 132.772 39.512 131.924 38.504C131.092 37.48 130.076 36.968 128.876 36.968C127.676 36.968 126.756 37.376 126.116 38.192C125.492 38.992 125.18 39.848 125.18 40.76Z" fill="#457B9D"/>
<path d="M13.152 59H10.08V58.664H10.464C10.816 58.664 10.992 58.552 10.992 58.328C10.992 58.296 10.952 58.16 10.872 57.92L10.056 55.784H7.032L6.24 57.824C6.24 57.84 6.212 57.94 6.156 58.124C6.1 58.3 6.072 58.424 6.072 58.496C6.072 58.56 6.116 58.604 6.204 58.628C6.292 58.652 6.48 58.664 6.768 58.664H6.96V59H4.608V58.664H4.776C5.04 58.664 5.232 58.62 5.352 58.532C5.472 58.436 5.576 58.28 5.664 58.064L8.304 51.176C8.344 51.168 8.416 51.112 8.52 51.008C8.624 50.896 8.72 50.784 8.808 50.672C8.896 50.552 8.94 50.484 8.94 50.468C8.94 50.452 8.936 50.44 8.928 50.432L9.096 50.384L12.048 58.112C12.136 58.296 12.224 58.436 12.312 58.532C12.408 58.62 12.544 58.664 12.72 58.664H13.152V59ZM9.84 55.28L8.544 51.848L7.224 55.28H9.84ZM16.1813 61.808H13.7573V61.448H13.9013C14.0773 61.448 14.2053 61.42 14.2853 61.364C14.3733 61.308 14.4213 61.252 14.4293 61.196C14.4453 61.14 14.4533 61.048 14.4533 60.92V54.704C14.4533 54.336 14.2213 54.152 13.7573 54.152V53.84C13.9093 53.84 14.1493 53.78 14.4773 53.66C14.8053 53.532 15.0453 53.416 15.1973 53.312L15.4133 53.288V54.8C15.5813 54.344 15.8533 53.972 16.2293 53.684C16.6053 53.388 17.0693 53.24 17.6213 53.24C18.1733 53.24 18.6093 53.42 18.9293 53.78C19.2573 54.14 19.4213 54.624 19.4213 55.232C19.4213 56.36 19.1253 57.3 18.5333 58.052C17.9413 58.796 17.2213 59.168 16.3733 59.168C16.0773 59.168 15.7573 59.088 15.4133 58.928V60.968C15.4133 61.08 15.4213 61.164 15.4373 61.22C15.4773 61.372 15.6453 61.448 15.9413 61.448H16.1813V61.808ZM15.4133 55.784V57.92C15.4453 57.968 15.4933 58.032 15.5573 58.112C15.6213 58.192 15.7533 58.296 15.9533 58.424C16.1613 58.552 16.3733 58.616 16.5893 58.616C17.1733 58.616 17.6573 58.34 18.0413 57.788C18.4333 57.236 18.6293 56.536 18.6293 55.688C18.6293 55.216 18.4813 54.828 18.1853 54.524C17.8973 54.212 17.5333 54.056 17.0933 54.056C16.6613 54.056 16.2733 54.3 15.9293 54.788C15.5853 55.268 15.4133 55.6 15.4133 55.784ZM22.9364 59H20.3444V58.664H20.5364C20.7524 58.664 20.8884 58.628 20.9444 58.556C21.0084 58.484 21.0404 58.368 21.0404 58.208V54.608C21.0404 54.456 20.9884 54.348 20.8844 54.284C20.7884 54.212 20.6084 54.176 20.3444 54.176V53.84C20.5044 53.84 20.7444 53.784 21.0644 53.672C21.3924 53.552 21.6404 53.44 21.8084 53.336L22.0244 53.288V54.776C22.3124 54.144 22.6404 53.728 23.0084 53.528C23.3764 53.32 23.9204 53.216 24.6404 53.216L24.5684 54.608H24.2084C24.2084 54.496 24.1644 54.388 24.0764 54.284C23.9964 54.18 23.8644 54.128 23.6804 54.128C23.2804 54.128 22.9044 54.344 22.5524 54.776C22.2004 55.208 22.0244 55.624 22.0244 56.024V58.136C22.0244 58.264 22.0284 58.356 22.0364 58.412C22.0524 58.468 22.1004 58.524 22.1804 58.58C22.2604 58.636 22.3844 58.664 22.5524 58.664H22.9364V59ZM29.78 57.536L29.996 57.752C29.484 58.696 28.564 59.168 27.236 59.168C26.62 59.168 26.092 58.896 25.652 58.352C25.22 57.808 25.004 57.2 25.004 56.528C25.004 55.624 25.296 54.852 25.88 54.212C26.472 53.564 27.188 53.24 28.028 53.24C28.428 53.24 28.78 53.356 29.084 53.588C29.628 54.012 29.9 54.56 29.9 55.232C29.9 55.328 29.88 55.444 29.84 55.58C29.808 55.716 29.78 55.784 29.756 55.784L25.892 55.904C25.892 56.528 26.088 57.104 26.48 57.632C26.872 58.16 27.348 58.424 27.908 58.424C28.308 58.424 28.676 58.344 29.012 58.184C29.356 58.016 29.612 57.8 29.78 57.536ZM26.012 55.424L28.82 55.304C28.836 55.304 28.844 55.232 28.844 55.088C28.844 54.672 28.72 54.376 28.472 54.2C28.232 54.024 27.896 53.936 27.464 53.936C27.04 53.936 26.692 54.068 26.42 54.332C26.148 54.596 26.012 54.96 26.012 55.424ZM37.057 59H34.993V58.664H35.041C35.129 58.664 35.201 58.62 35.257 58.532C35.321 58.444 35.353 58.336 35.353 58.208V55.16C35.353 54.8 35.265 54.528 35.089 54.344C34.921 54.152 34.681 54.056 34.369 54.056C33.921 54.056 33.525 54.296 33.181 54.776C32.837 55.256 32.665 55.616 32.665 55.856V58.136C32.665 58.264 32.669 58.356 32.677 58.412C32.693 58.468 32.741 58.524 32.821 58.58C32.901 58.636 33.025 58.664 33.193 58.664H33.409V59H30.985V58.664H31.177C31.393 58.664 31.529 58.628 31.585 58.556C31.649 58.484 31.681 58.368 31.681 58.208V54.608C31.681 54.456 31.629 54.348 31.525 54.284C31.429 54.212 31.249 54.176 30.985 54.176V53.84C31.145 53.84 31.385 53.784 31.705 53.672C32.033 53.552 32.281 53.44 32.449 53.336L32.665 53.288V54.824C32.849 54.32 33.133 53.932 33.517 53.66C33.901 53.38 34.369 53.24 34.921 53.24C35.209 53.24 35.453 53.304 35.653 53.432C35.853 53.56 35.997 53.724 36.085 53.924C36.237 54.268 36.313 54.608 36.313 54.944V58.184C36.313 58.296 36.321 58.38 36.337 58.436C36.377 58.588 36.545 58.664 36.841 58.664H37.057V59ZM43.5603 59H41.8323V57.608C41.6643 58.064 41.3923 58.44 41.0163 58.736C40.6403 59.024 40.1723 59.168 39.6123 59.168C39.0603 59.168 38.6243 58.988 38.3043 58.628C37.9843 58.268 37.8243 57.784 37.8243 57.176C37.8243 56.048 38.1163 55.112 38.7003 54.368C39.2923 53.616 40.0163 53.24 40.8723 53.24C41.0643 53.24 41.3843 53.32 41.8323 53.48V51.08C41.8323 50.928 41.7803 50.82 41.6763 50.756C41.5723 50.684 41.3923 50.648 41.1363 50.648V50.312C41.3043 50.312 41.5523 50.268 41.8803 50.18C42.2083 50.092 42.4403 50 42.5763 49.904L42.7923 49.856V58.184C42.7923 58.336 42.8203 58.448 42.8763 58.52C42.9403 58.584 43.0883 58.616 43.3203 58.616H43.5603V59ZM41.8323 56.624V54.488C41.8003 54.44 41.7523 54.376 41.6883 54.296C41.6243 54.216 41.4883 54.112 41.2803 53.984C41.0803 53.856 40.8723 53.792 40.6563 53.792C40.0723 53.792 39.5843 54.068 39.1923 54.62C38.8083 55.172 38.6163 55.872 38.6163 56.72C38.6163 57.192 38.7563 57.584 39.0363 57.896C39.3243 58.2 39.6883 58.352 40.1283 58.352C40.5763 58.352 40.9723 58.112 41.3163 57.632C41.6603 57.144 41.8323 56.808 41.8323 56.624ZM49.7511 59H48.0231V58.04C47.6231 58.472 47.2911 58.768 47.0271 58.928C46.7631 59.088 46.4031 59.168 45.9471 59.168C45.4991 59.168 45.1471 59.064 44.8911 58.856C44.6431 58.64 44.5191 58.34 44.5191 57.956C44.5191 57.572 44.6831 57.2 45.0111 56.84C45.3471 56.472 45.7351 56.196 46.1751 56.012C46.6231 55.82 47.0151 55.676 47.3511 55.58C47.6871 55.476 47.9111 55.424 48.0231 55.424V55.16C48.0231 54.408 47.7111 54.032 47.0871 54.032C46.6551 54.032 46.2511 54.124 45.8751 54.308C45.5071 54.492 45.2311 54.728 45.0471 55.016L44.8071 54.8C45.3431 53.76 46.2711 53.24 47.5911 53.24C47.9271 53.24 48.2031 53.332 48.4191 53.516C48.6431 53.692 48.7911 53.9 48.8631 54.14C48.9431 54.38 48.9831 54.648 48.9831 54.944V58.184C48.9831 58.288 48.9911 58.368 49.0071 58.424C49.0231 58.48 49.0711 58.536 49.1511 58.592C49.2391 58.64 49.3671 58.664 49.5351 58.664H49.7511V59ZM48.0231 57.368V55.904C47.3991 56.024 46.8191 56.264 46.2831 56.624C45.7471 56.984 45.4791 57.376 45.4791 57.8C45.4791 57.968 45.5591 58.116 45.7191 58.244C45.8871 58.364 46.0911 58.424 46.3311 58.424C46.5791 58.424 46.8711 58.316 47.2071 58.1C47.5431 57.876 47.8151 57.632 48.0231 57.368ZM51.0923 60.728L50.9003 60.488C51.3403 60.152 51.6123 59.712 51.7163 59.168C51.5483 59.168 51.4123 59.112 51.3083 59C51.2123 58.896 51.1643 58.752 51.1643 58.568C51.1643 58.376 51.2403 58.212 51.3923 58.076C51.5443 57.94 51.7123 57.872 51.8963 57.872C52.0803 57.872 52.2203 57.924 52.3163 58.028C52.4123 58.132 52.4603 58.264 52.4603 58.424C52.4603 58.792 52.3603 59.152 52.1603 59.504C51.9683 59.864 51.7843 60.124 51.6083 60.284C51.4403 60.452 51.2683 60.6 51.0923 60.728ZM60.9987 57.536L61.2147 57.752C60.7027 58.696 59.7827 59.168 58.4547 59.168C57.8387 59.168 57.3107 58.896 56.8707 58.352C56.4387 57.808 56.2227 57.2 56.2227 56.528C56.2227 55.624 56.5147 54.852 57.0987 54.212C57.6907 53.564 58.4067 53.24 59.2467 53.24C59.6467 53.24 59.9987 53.356 60.3027 53.588C60.8467 54.012 61.1187 54.56 61.1187 55.232C61.1187 55.328 61.0987 55.444 61.0587 55.58C61.0267 55.716 60.9987 55.784 60.9747 55.784L57.1107 55.904C57.1107 56.528 57.3067 57.104 57.6987 57.632C58.0907 58.16 58.5667 58.424 59.1267 58.424C59.5267 58.424 59.8947 58.344 60.2307 58.184C60.5747 58.016 60.8307 57.8 60.9987 57.536ZM57.2307 55.424L60.0387 55.304C60.0547 55.304 60.0627 55.232 60.0627 55.088C60.0627 54.672 59.9387 54.376 59.6907 54.2C59.4507 54.024 59.1147 53.936 58.6827 53.936C58.2587 53.936 57.9107 54.068 57.6387 54.332C57.3667 54.596 57.2307 54.96 57.2307 55.424ZM68.2758 59H66.2118V58.664H66.2598C66.3478 58.664 66.4198 58.62 66.4758 58.532C66.5398 58.444 66.5718 58.336 66.5718 58.208V55.16C66.5718 54.8 66.4838 54.528 66.3078 54.344C66.1398 54.152 65.8998 54.056 65.5878 54.056C65.1398 54.056 64.7438 54.296 64.3998 54.776C64.0558 55.256 63.8838 55.616 63.8838 55.856V58.136C63.8838 58.264 63.8878 58.356 63.8958 58.412C63.9118 58.468 63.9598 58.524 64.0398 58.58C64.1198 58.636 64.2438 58.664 64.4118 58.664H64.6278V59H62.2038V58.664H62.3958C62.6118 58.664 62.7478 58.628 62.8038 58.556C62.8678 58.484 62.8998 58.368 62.8998 58.208V54.608C62.8998 54.456 62.8478 54.348 62.7438 54.284C62.6478 54.212 62.4678 54.176 62.2038 54.176V53.84C62.3638 53.84 62.6038 53.784 62.9238 53.672C63.2518 53.552 63.4998 53.44 63.6678 53.336L63.8838 53.288V54.824C64.0678 54.32 64.3518 53.932 64.7358 53.66C65.1198 53.38 65.5878 53.24 66.1398 53.24C66.4278 53.24 66.6718 53.304 66.8718 53.432C67.0718 53.56 67.2158 53.724 67.3038 53.924C67.4558 54.268 67.5318 54.608 67.5318 54.944V58.184C67.5318 58.296 67.5398 58.38 67.5558 58.436C67.5958 58.588 67.7638 58.664 68.0598 58.664H68.2758V59ZM72.5604 58.256L72.6564 58.544C72.0564 58.96 71.4004 59.168 70.6884 59.168C70.4324 59.168 70.2124 59.076 70.0284 58.892C69.8444 58.708 69.7524 58.464 69.7524 58.16V53.912H69.0564V53.408H69.3204C69.5844 53.408 69.8284 53.248 70.0524 52.928C70.2844 52.608 70.4004 52.312 70.4004 52.04H70.7124V53.408H72.3444V53.912H71.1684C70.8644 53.912 70.7124 54.056 70.7124 54.344V57.776C70.7124 58.304 70.9044 58.568 71.2884 58.568C71.7204 58.568 72.1444 58.464 72.5604 58.256ZM77.8151 57.536L78.0311 57.752C77.5191 58.696 76.5991 59.168 75.2711 59.168C74.6551 59.168 74.1271 58.896 73.6871 58.352C73.2551 57.808 73.0391 57.2 73.0391 56.528C73.0391 55.624 73.3311 54.852 73.9151 54.212C74.5071 53.564 75.2231 53.24 76.0631 53.24C76.4631 53.24 76.8151 53.356 77.1191 53.588C77.6631 54.012 77.9351 54.56 77.9351 55.232C77.9351 55.328 77.9151 55.444 77.8751 55.58C77.8431 55.716 77.8151 55.784 77.7911 55.784L73.9271 55.904C73.9271 56.528 74.1231 57.104 74.5151 57.632C74.9071 58.16 75.3831 58.424 75.9431 58.424C76.3431 58.424 76.7111 58.344 77.0471 58.184C77.3911 58.016 77.6471 57.8 77.8151 57.536ZM74.0471 55.424L76.8551 55.304C76.8711 55.304 76.8791 55.232 76.8791 55.088C76.8791 54.672 76.7551 54.376 76.5071 54.2C76.2671 54.024 75.9311 53.936 75.4991 53.936C75.0751 53.936 74.7271 54.068 74.4551 54.332C74.1831 54.596 74.0471 54.96 74.0471 55.424ZM85.0922 59H83.0282V58.664H83.0762C83.1642 58.664 83.2362 58.62 83.2922 58.532C83.3562 58.444 83.3882 58.336 83.3882 58.208V55.16C83.3882 54.8 83.3002 54.528 83.1242 54.344C82.9562 54.152 82.7162 54.056 82.4042 54.056C81.9562 54.056 81.5602 54.296 81.2162 54.776C80.8722 55.256 80.7002 55.616 80.7002 55.856V58.136C80.7002 58.264 80.7042 58.356 80.7122 58.412C80.7282 58.468 80.7762 58.524 80.8562 58.58C80.9362 58.636 81.0602 58.664 81.2282 58.664H81.4442V59H79.0202V58.664H79.2122C79.4282 58.664 79.5642 58.628 79.6202 58.556C79.6842 58.484 79.7162 58.368 79.7162 58.208V54.608C79.7162 54.456 79.6642 54.348 79.5602 54.284C79.4642 54.212 79.2842 54.176 79.0202 54.176V53.84C79.1802 53.84 79.4202 53.784 79.7402 53.672C80.0682 53.552 80.3162 53.44 80.4842 53.336L80.7002 53.288V54.824C80.8842 54.32 81.1682 53.932 81.5522 53.66C81.9362 53.38 82.4042 53.24 82.9562 53.24C83.2442 53.24 83.4882 53.304 83.6882 53.432C83.8882 53.56 84.0322 53.724 84.1202 53.924C84.2722 54.268 84.3482 54.608 84.3482 54.944V58.184C84.3482 58.296 84.3562 58.38 84.3722 58.436C84.4122 58.588 84.5802 58.664 84.8762 58.664H85.0922V59ZM91.5954 59H89.8674V57.608C89.6994 58.064 89.4274 58.44 89.0514 58.736C88.6754 59.024 88.2074 59.168 87.6474 59.168C87.0954 59.168 86.6594 58.988 86.3394 58.628C86.0194 58.268 85.8594 57.784 85.8594 57.176C85.8594 56.048 86.1514 55.112 86.7354 54.368C87.3274 53.616 88.0514 53.24 88.9074 53.24C89.0994 53.24 89.4194 53.32 89.8674 53.48V51.08C89.8674 50.928 89.8154 50.82 89.7114 50.756C89.6074 50.684 89.4274 50.648 89.1714 50.648V50.312C89.3394 50.312 89.5874 50.268 89.9154 50.18C90.2434 50.092 90.4754 50 90.6114 49.904L90.8274 49.856V58.184C90.8274 58.336 90.8554 58.448 90.9114 58.52C90.9754 58.584 91.1234 58.616 91.3554 58.616H91.5954V59ZM89.8674 56.624V54.488C89.8354 54.44 89.7874 54.376 89.7234 54.296C89.6594 54.216 89.5234 54.112 89.3154 53.984C89.1154 53.856 88.9074 53.792 88.6914 53.792C88.1074 53.792 87.6194 54.068 87.2274 54.62C86.8434 55.172 86.6514 55.872 86.6514 56.72C86.6514 57.192 86.7914 57.584 87.0714 57.896C87.3594 58.2 87.7234 58.352 88.1634 58.352C88.6114 58.352 89.0074 58.112 89.3514 57.632C89.6954 57.144 89.8674 56.808 89.8674 56.624ZM97.7862 59H96.0582V58.04C95.6582 58.472 95.3262 58.768 95.0622 58.928C94.7982 59.088 94.4382 59.168 93.9822 59.168C93.5342 59.168 93.1822 59.064 92.9262 58.856C92.6782 58.64 92.5542 58.34 92.5542 57.956C92.5542 57.572 92.7182 57.2 93.0462 56.84C93.3822 56.472 93.7702 56.196 94.2102 56.012C94.6582 55.82 95.0502 55.676 95.3862 55.58C95.7222 55.476 95.9462 55.424 96.0582 55.424V55.16C96.0582 54.408 95.7462 54.032 95.1222 54.032C94.6902 54.032 94.2862 54.124 93.9102 54.308C93.5422 54.492 93.2662 54.728 93.0822 55.016L92.8422 54.8C93.3782 53.76 94.3062 53.24 95.6262 53.24C95.9622 53.24 96.2382 53.332 96.4542 53.516C96.6782 53.692 96.8262 53.9 96.8982 54.14C96.9782 54.38 97.0182 54.648 97.0182 54.944V58.184C97.0182 58.288 97.0262 58.368 97.0422 58.424C97.0582 58.48 97.1062 58.536 97.1862 58.592C97.2742 58.64 97.4022 58.664 97.5702 58.664H97.7862V59ZM96.0582 57.368V55.904C95.4342 56.024 94.8542 56.264 94.3182 56.624C93.7822 56.984 93.5142 57.376 93.5142 57.8C93.5142 57.968 93.5942 58.116 93.7542 58.244C93.9222 58.364 94.1262 58.424 94.3662 58.424C94.6142 58.424 94.9062 58.316 95.2422 58.1C95.5782 57.876 95.8502 57.632 96.0582 57.368ZM99.1274 60.728L98.9354 60.488C99.3754 60.152 99.6474 59.712 99.7514 59.168C99.5834 59.168 99.4474 59.112 99.3434 59C99.2474 58.896 99.1994 58.752 99.1994 58.568C99.1994 58.376 99.2754 58.212 99.4274 58.076C99.5794 57.94 99.7474 57.872 99.9314 57.872C100.115 57.872 100.255 57.924 100.351 58.028C100.447 58.132 100.495 58.264 100.495 58.424C100.495 58.792 100.395 59.152 100.195 59.504C100.003 59.864 99.8194 60.124 99.6434 60.284C99.4754 60.452 99.3034 60.6 99.1274 60.728ZM107.042 59H104.45V58.664H104.642C104.858 58.664 104.994 58.628 105.05 58.556C105.114 58.484 105.146 58.368 105.146 58.208V54.608C105.146 54.456 105.094 54.348 104.99 54.284C104.894 54.212 104.714 54.176 104.45 54.176V53.84C104.61 53.84 104.85 53.784 105.17 53.672C105.498 53.552 105.746 53.44 105.914 53.336L106.13 53.288V54.776C106.418 54.144 106.746 53.728 107.114 53.528C107.482 53.32 108.026 53.216 108.746 53.216L108.674 54.608H108.314C108.314 54.496 108.27 54.388 108.182 54.284C108.102 54.18 107.97 54.128 107.786 54.128C107.386 54.128 107.01 54.344 106.658 54.776C106.306 55.208 106.13 55.624 106.13 56.024V58.136C106.13 58.264 106.134 58.356 106.142 58.412C106.158 58.468 106.206 58.524 106.286 58.58C106.366 58.636 106.49 58.664 106.658 58.664H107.042V59ZM113.885 57.536L114.101 57.752C113.589 58.696 112.669 59.168 111.341 59.168C110.725 59.168 110.197 58.896 109.757 58.352C109.325 57.808 109.109 57.2 109.109 56.528C109.109 55.624 109.401 54.852 109.985 54.212C110.577 53.564 111.293 53.24 112.133 53.24C112.533 53.24 112.885 53.356 113.189 53.588C113.733 54.012 114.005 54.56 114.005 55.232C114.005 55.328 113.985 55.444 113.945 55.58C113.913 55.716 113.885 55.784 113.861 55.784L109.997 55.904C109.997 56.528 110.193 57.104 110.585 57.632C110.977 58.16 111.453 58.424 112.013 58.424C112.413 58.424 112.781 58.344 113.117 58.184C113.461 58.016 113.717 57.8 113.885 57.536ZM110.117 55.424L112.925 55.304C112.941 55.304 112.949 55.232 112.949 55.088C112.949 54.672 112.825 54.376 112.577 54.2C112.337 54.024 112.001 53.936 111.569 53.936C111.145 53.936 110.797 54.068 110.525 54.332C110.253 54.596 110.117 54.96 110.117 55.424ZM115.091 58.664L115.211 57.368L115.547 57.392C115.547 57.664 115.723 57.924 116.075 58.172C116.427 58.42 116.807 58.544 117.215 58.544C118.055 58.544 118.475 58.288 118.475 57.776C118.475 57.52 118.367 57.292 118.151 57.092C117.935 56.892 117.675 56.728 117.371 56.6C117.067 56.464 116.763 56.328 116.459 56.192C116.155 56.048 115.895 55.864 115.679 55.64C115.463 55.408 115.354 55.144 115.354 54.848C115.354 53.808 116.123 53.288 117.659 53.288C118.003 53.288 118.379 53.384 118.787 53.576L118.715 54.776H118.427C118.427 54.552 118.295 54.336 118.031 54.128C117.775 53.92 117.495 53.816 117.191 53.816C116.887 53.816 116.627 53.876 116.411 53.996C116.203 54.116 116.099 54.296 116.099 54.536C116.099 54.768 116.207 54.96 116.423 55.112C116.639 55.264 116.899 55.388 117.203 55.484C117.507 55.58 117.811 55.688 118.115 55.808C118.419 55.928 118.679 56.124 118.895 56.396C119.111 56.668 119.219 57.008 119.219 57.416C119.219 57.824 119.087 58.164 118.823 58.436C118.351 58.924 117.667 59.168 116.771 59.168C116.075 59.168 115.515 59 115.091 58.664ZM122.527 59.168C121.823 59.168 121.235 58.904 120.763 58.376C120.291 57.848 120.055 57.232 120.055 56.528C120.055 55.632 120.391 54.86 121.063 54.212C121.743 53.564 122.459 53.24 123.211 53.24C123.963 53.24 124.567 53.508 125.023 54.044C125.487 54.572 125.719 55.184 125.719 55.88C125.719 56.752 125.395 57.52 124.747 58.184C124.107 58.84 123.367 59.168 122.527 59.168ZM120.895 55.88C120.895 56.624 121.119 57.244 121.567 57.74C122.023 58.228 122.531 58.472 123.091 58.472C123.659 58.472 124.103 58.26 124.423 57.836C124.743 57.412 124.903 56.976 124.903 56.528C124.903 55.848 124.691 55.256 124.267 54.752C123.851 54.24 123.343 53.984 122.743 53.984C122.143 53.984 121.683 54.188 121.363 54.596C121.051 54.996 120.895 55.424 120.895 55.88ZM128.915 59H126.515V58.664H126.683C126.859 58.664 126.987 58.628 127.067 58.556C127.147 58.476 127.187 58.344 127.187 58.16V51.08C127.187 50.928 127.135 50.82 127.031 50.756C126.927 50.684 126.747 50.648 126.491 50.648V50.312C126.651 50.312 126.895 50.268 127.223 50.18C127.559 50.092 127.803 50 127.955 49.904L128.171 49.856V58.136C128.171 58.264 128.175 58.356 128.183 58.412C128.199 58.468 128.247 58.524 128.327 58.58C128.407 58.636 128.531 58.664 128.699 58.664H128.915V59ZM132.038 59.168L130.214 54.296C130.142 54.112 130.062 53.98 129.974 53.9C129.894 53.812 129.766 53.768 129.59 53.768H129.422V53.408H131.654L131.63 53.768H131.51C131.27 53.768 131.15 53.84 131.15 53.984C131.15 54.08 131.158 54.144 131.174 54.176L132.518 57.704L133.886 54.248C133.95 54.12 133.982 54.02 133.982 53.948C133.982 53.876 133.938 53.828 133.85 53.804C133.77 53.78 133.582 53.768 133.286 53.768H133.142V53.408H135.398V53.768H135.302C135.046 53.768 134.862 53.808 134.75 53.888C134.646 53.968 134.55 54.12 134.462 54.344L132.878 58.4C132.814 58.4 132.69 58.508 132.506 58.724C132.322 58.932 132.23 59.064 132.23 59.12L132.038 59.168ZM140.735 59H139.007V58.04C138.607 58.472 138.275 58.768 138.011 58.928C137.747 59.088 137.387 59.168 136.931 59.168C136.483 59.168 136.131 59.064 135.875 58.856C135.627 58.64 135.503 58.34 135.503 57.956C135.503 57.572 135.667 57.2 135.995 56.84C136.331 56.472 136.719 56.196 137.159 56.012C137.607 55.82 137.999 55.676 138.335 55.58C138.671 55.476 138.895 55.424 139.007 55.424V55.16C139.007 54.408 138.695 54.032 138.071 54.032C137.639 54.032 137.235 54.124 136.859 54.308C136.491 54.492 136.215 54.728 136.031 55.016L135.791 54.8C136.327 53.76 137.255 53.24 138.575 53.24C138.911 53.24 139.187 53.332 139.403 53.516C139.627 53.692 139.775 53.9 139.847 54.14C139.927 54.38 139.967 54.648 139.967 54.944V58.184C139.967 58.288 139.975 58.368 139.991 58.424C140.007 58.48 140.055 58.536 140.135 58.592C140.223 58.64 140.351 58.664 140.519 58.664H140.735V59ZM139.007 57.368V55.904C138.383 56.024 137.803 56.264 137.267 56.624C136.731 56.984 136.463 57.376 136.463 57.8C136.463 57.968 136.543 58.116 136.703 58.244C136.871 58.364 137.075 58.424 137.315 58.424C137.563 58.424 137.855 58.316 138.191 58.1C138.527 57.876 138.799 57.632 139.007 57.368Z" fill="#171717"/>
</svg>
