<svg width="188" height="101" viewBox="0 0 188 101" fill="none" xmlns="http://www.w3.org/2000/svg">
<path d="M110 39.7143L94.2345 47.1334C93.6747 47.3968 93.0244 47.3863 92.4733 47.1049L79.0904 40.2711C78.4212 39.9294 78 39.2414 78 38.4899V35.4095C78 33.9301 79.5504 32.9628 80.8791 33.613L92.4671 39.2837C93.0222 39.5554 93.6716 39.5551 94.2265 39.2831L108.88 32.0999C109.566 31.764 110 31.0673 110 30.3041V26.5955C110 25.1156 108.449 24.1483 107.12 24.7997L94.2265 31.1199C93.6716 31.3919 93.0222 31.3921 92.4671 31.1205L79.1209 24.5893C78.4349 24.2537 78 23.5566 78 22.7929V16.9544C78 16.1122 78.5277 15.3602 79.3197 15.0737L92.6382 10.2564C93.095 10.0911 93.5964 10.0978 94.0486 10.2752L105.58 14.7973C107.228 15.4436 107.286 17.7547 105.672 18.4824L94.1817 23.6644C93.6516 23.9034 93.0438 23.9 92.5166 23.6549L82.5 19" stroke="#4E0606" stroke-width="2.5" stroke-linecap="round"/>
<path d="M82.2625 22.3723L90.6992 26.3094" stroke="#4E0606" stroke-width="1.5" stroke-linecap="round"/>
<path d="M81.9185 29.9183L91.0614 34.4897" stroke="#4E0606" stroke-width="1.5" stroke-linecap="round"/>
<path d="M82.2625 38.0457L90.6992 41.9828" stroke="#4E0606" stroke-width="1.5" stroke-linecap="round"/>
<path d="M23.888 78.551H15.568V77.655H16.848C17.488 77.655 17.8933 77.5377 18.064 77.303C18.2347 77.047 18.32 76.695 18.32 76.247V58.967C18.32 58.647 18.2987 58.4017 18.256 58.231C18.2133 58.039 18.0747 57.8684 17.84 57.719C17.6267 57.5697 17.296 57.495 16.848 57.495H14.928C13.7973 57.495 12.9227 57.847 12.304 58.551C11.7067 59.2337 11.3867 59.9697 11.344 60.759L10.448 60.567L10.768 56.151H28.752L29.072 60.567L28.176 60.759C28.1333 59.991 27.8027 59.255 27.184 58.551C26.5653 57.847 25.7013 57.495 24.592 57.495H22.672C22.2027 57.495 21.8507 57.5804 21.616 57.751C21.3813 57.9004 21.2427 58.0604 21.2 58.231C21.1573 58.4017 21.136 58.647 21.136 58.967V76.247C21.136 76.5457 21.1573 76.7804 21.2 76.951C21.2427 77.1217 21.3813 77.2817 21.616 77.431C21.8507 77.5804 22.2027 77.655 22.672 77.655H23.888V78.551ZM41.882 74.647L42.458 75.223C41.0927 77.7404 38.6393 78.999 35.098 78.999C33.4553 78.999 32.0473 78.2737 30.874 76.823C29.722 75.3724 29.146 73.751 29.146 71.959C29.146 69.5484 29.9247 67.4897 31.482 65.783C33.0607 64.055 34.97 63.191 37.21 63.191C38.2767 63.191 39.2153 63.5004 40.026 64.119C41.4767 65.2497 42.202 66.711 42.202 68.503C42.202 68.759 42.1487 69.0684 42.042 69.431C41.9567 69.7937 41.882 69.975 41.818 69.975L31.514 70.295C31.514 71.959 32.0367 73.495 33.082 74.903C34.1273 76.311 35.3967 77.015 36.89 77.015C37.9567 77.015 38.938 76.8017 39.834 76.375C40.7513 75.927 41.434 75.351 41.882 74.647ZM31.834 69.015L39.322 68.695C39.3647 68.695 39.386 68.503 39.386 68.119C39.386 67.0097 39.0553 66.2204 38.394 65.751C37.754 65.2817 36.858 65.047 35.706 65.047C34.5753 65.047 33.6473 65.399 32.922 66.103C32.1967 66.807 31.834 67.7777 31.834 69.015ZM57.3195 74.647L57.8955 75.223C56.5302 77.7404 54.0768 78.999 50.5355 78.999C48.8928 78.999 47.4848 78.2737 46.3115 76.823C45.1595 75.3724 44.5835 73.751 44.5835 71.959C44.5835 70.807 44.8608 69.655 45.4155 68.503C45.9915 67.3297 46.5782 66.4017 47.1755 65.719C47.7942 65.015 48.6262 64.4177 49.6715 63.927C50.7382 63.4364 51.8582 63.191 53.0315 63.191C54.2048 63.191 55.4208 63.4257 56.6795 63.895L56.4875 66.839H55.5275C55.5275 66.2844 55.1755 65.8257 54.4715 65.463C53.7888 65.1004 53.0208 64.919 52.1675 64.919C51.3142 64.919 50.5462 65.0577 49.8635 65.335C49.1808 65.591 48.6582 65.911 48.2955 66.295C47.9542 66.679 47.6768 67.1377 47.4635 67.671C47.1222 68.4604 46.9515 69.335 46.9515 70.295C46.9515 71.959 47.4742 73.495 48.5195 74.903C49.5648 76.311 50.8342 77.015 52.3275 77.015C53.3942 77.015 54.3755 76.8017 55.2715 76.375C56.1888 75.927 56.8715 75.351 57.3195 74.647ZM76.3188 78.551H70.8148V77.655H70.9428C71.1774 77.655 71.3694 77.5377 71.5188 77.303C71.6894 77.0684 71.7748 76.7804 71.7748 76.439V68.311C71.7748 67.351 71.5401 66.6257 71.0708 66.135C70.6228 65.623 69.9828 65.367 69.1508 65.367C67.9561 65.367 66.9001 66.007 65.9828 67.287C65.0654 68.567 64.6068 69.527 64.6068 70.167V76.247C64.6068 76.5884 64.6174 76.8337 64.6388 76.983C64.6814 77.1324 64.8094 77.2817 65.0228 77.431C65.2361 77.5804 65.5668 77.655 66.0148 77.655H66.5908V78.551H60.1268V77.655H60.6388C61.2148 77.655 61.5774 77.559 61.7268 77.367C61.8974 77.175 61.9828 76.8657 61.9828 76.439V66.839C61.9828 66.4337 61.8441 66.1457 61.5668 65.975C61.3108 65.783 60.8308 65.687 60.1268 65.687V64.791C60.5534 64.791 61.1934 64.6417 62.0468 64.343C62.9214 64.023 63.5828 63.7244 64.0308 63.447L64.6068 63.319V67.415C65.0974 66.071 65.8548 65.0364 66.8788 64.311C67.9028 63.5644 69.1508 63.191 70.6228 63.191C71.3908 63.191 72.0414 63.3617 72.5748 63.703C73.1081 64.0444 73.4921 64.4817 73.7268 65.015C74.1321 65.9324 74.3348 66.839 74.3348 67.735V76.375C74.3348 76.6737 74.3561 76.8977 74.3988 77.047C74.5054 77.4524 74.9534 77.655 75.7428 77.655H76.3188V78.551ZM84.9568 78.999C83.0794 78.999 81.5114 78.295 80.2528 76.887C78.9941 75.479 78.3648 73.8364 78.3648 71.959C78.3648 69.5697 79.2608 67.511 81.0528 65.783C82.8661 64.055 84.7754 63.191 86.7808 63.191C88.7861 63.191 90.3968 63.9057 91.6128 65.335C92.8501 66.743 93.4688 68.375 93.4688 70.231C93.4688 72.5564 92.6048 74.6044 90.8768 76.375C89.1701 78.1244 87.1968 78.999 84.9568 78.999ZM80.6048 70.231C80.6048 72.215 81.2021 73.8684 82.3968 75.191C83.6128 76.4924 84.9674 77.143 86.4608 77.143C87.9754 77.143 89.1594 76.5777 90.0128 75.447C90.8661 74.3164 91.2928 73.1537 91.2928 71.959C91.2928 70.1457 90.7274 68.567 89.5968 67.223C88.4874 65.8577 87.1328 65.175 85.5328 65.175C83.9328 65.175 82.7061 65.719 81.8528 66.807C81.0208 67.8737 80.6048 69.015 80.6048 70.231Z" fill="#E63946"/>
<path d="M104.522 78.999L104.01 79.191L96.1375 58.519C95.9455 58.0497 95.7215 57.6977 95.4655 57.463C95.2308 57.2284 94.8788 57.111 94.4095 57.111H93.3215V56.151H101.45V57.111H100.362C99.4655 57.111 99.0175 57.3884 99.0175 57.943C99.0175 58.199 99.1242 58.583 99.3375 59.095L105.546 75.223L111.946 58.583L112.266 57.623C112.266 57.4097 112.138 57.271 111.882 57.207C111.626 57.143 111.114 57.111 110.346 57.111H109.642V56.151H115.978V57.111H115.594C114.868 57.111 114.335 57.2284 113.994 57.463C113.674 57.6977 113.418 58.1137 113.226 58.711L106.186 77.015C105.418 77.5697 104.863 78.231 104.522 78.999ZM128.57 74.647L129.146 75.223C127.78 77.7404 125.327 78.999 121.786 78.999C120.143 78.999 118.735 78.2737 117.562 76.823C116.41 75.3724 115.834 73.751 115.834 71.959C115.834 69.5484 116.612 67.4897 118.17 65.783C119.748 64.055 121.658 63.191 123.898 63.191C124.964 63.191 125.903 63.5004 126.714 64.119C128.164 65.2497 128.89 66.711 128.89 68.503C128.89 68.759 128.836 69.0684 128.73 69.431C128.644 69.7937 128.57 69.975 128.506 69.975L118.202 70.295C118.202 71.959 118.724 73.495 119.77 74.903C120.815 76.311 122.084 77.015 123.578 77.015C124.644 77.015 125.626 76.8017 126.522 76.375C127.439 75.927 128.122 75.351 128.57 74.647ZM118.522 69.015L126.01 68.695C126.052 68.695 126.074 68.503 126.074 68.119C126.074 67.0097 125.743 66.2204 125.082 65.751C124.442 65.2817 123.546 65.047 122.394 65.047C121.263 65.047 120.335 65.399 119.61 66.103C118.884 66.807 118.522 67.7777 118.522 69.015ZM138.539 78.551H131.627V77.655H132.139C132.715 77.655 133.077 77.559 133.227 77.367C133.397 77.175 133.483 76.8657 133.483 76.439V66.839C133.483 66.4337 133.344 66.1457 133.067 65.975C132.811 65.783 132.331 65.687 131.627 65.687V64.791C132.053 64.791 132.693 64.6417 133.547 64.343C134.421 64.023 135.083 63.7244 135.531 63.447L136.107 63.319V67.287C136.875 65.6017 137.749 64.4924 138.731 63.959C139.712 63.4044 141.163 63.127 143.083 63.127L142.891 66.839H141.931C141.931 66.5404 141.813 66.2524 141.579 65.975C141.365 65.6977 141.013 65.559 140.523 65.559C139.456 65.559 138.453 66.135 137.515 67.287C136.576 68.439 136.107 69.5484 136.107 70.615V76.247C136.107 76.5884 136.117 76.8337 136.139 76.983C136.181 77.1324 136.309 77.2817 136.523 77.431C136.736 77.5804 137.067 77.655 137.515 77.655H138.539V78.551ZM145.91 77.015V57.431C145.91 57.0257 145.771 56.7377 145.494 56.567C145.238 56.375 144.758 56.279 144.054 56.279V55.383C144.523 55.383 145.184 55.2657 146.038 55.031C146.912 54.7964 147.552 54.551 147.958 54.295L148.534 54.167V67.415C148.96 66.1777 149.675 65.1644 150.678 64.375C151.68 63.5857 152.918 63.191 154.39 63.191C155.883 63.191 157.056 63.6817 157.91 64.663C158.784 65.623 159.222 66.9244 159.222 68.567C159.222 71.575 158.432 74.071 156.854 76.055C155.275 78.0177 153.334 78.999 151.03 78.999C150.219 78.999 149.28 78.7537 148.214 78.263C147.168 77.7724 146.4 77.3564 145.91 77.015ZM148.534 69.975V75.671C148.726 76.055 149.024 76.407 149.43 76.727C150.198 77.303 150.923 77.591 151.606 77.591C153.142 77.591 154.432 76.855 155.478 75.383C156.523 73.8897 157.046 72.023 157.046 69.783C157.046 68.503 156.662 67.447 155.894 66.615C155.147 65.783 154.187 65.367 153.014 65.367C151.862 65.367 150.827 66.0177 149.91 67.319C148.992 68.599 148.534 69.4844 148.534 69.975ZM167.926 78.999C166.048 78.999 164.48 78.295 163.222 76.887C161.963 75.479 161.334 73.8364 161.334 71.959C161.334 69.5697 162.23 67.511 164.022 65.783C165.835 64.055 167.744 63.191 169.75 63.191C171.755 63.191 173.366 63.9057 174.582 65.335C175.819 66.743 176.438 68.375 176.438 70.231C176.438 72.5564 175.574 74.6044 173.846 76.375C172.139 78.1244 170.166 78.999 167.926 78.999ZM163.574 70.231C163.574 72.215 164.171 73.8684 165.366 75.191C166.582 76.4924 167.936 77.143 169.43 77.143C170.944 77.143 172.128 76.5777 172.982 75.447C173.835 74.3164 174.262 73.1537 174.262 71.959C174.262 70.1457 173.696 68.567 172.566 67.223C171.456 65.8577 170.102 65.175 168.502 65.175C166.902 65.175 165.675 65.719 164.822 66.807C163.99 67.8737 163.574 69.015 163.574 70.231Z" fill="#457B9D"/>
<path d="M14.036 97H9.94V96.552H10.452C10.9213 96.552 11.156 96.4027 11.156 96.104C11.156 96.0613 11.1027 95.88 10.996 95.56L9.908 92.712H5.876L4.82 95.432C4.82 95.4533 4.78267 95.5867 4.708 95.832C4.63333 96.0667 4.596 96.232 4.596 96.328C4.596 96.4133 4.65467 96.472 4.772 96.504C4.88933 96.536 5.14 96.552 5.524 96.552H5.78V97H2.644V96.552H2.868C3.22 96.552 3.476 96.4933 3.636 96.376C3.796 96.248 3.93467 96.04 4.052 95.752L7.572 86.568C7.62533 86.5573 7.72133 86.4827 7.86 86.344C7.99867 86.1947 8.12667 86.0453 8.244 85.896C8.36133 85.736 8.42 85.6453 8.42 85.624C8.42 85.6027 8.41467 85.5867 8.404 85.576L8.628 85.512L12.564 95.816C12.6813 96.0613 12.7987 96.248 12.916 96.376C13.044 96.4933 13.2253 96.552 13.46 96.552H14.036V97ZM9.62 92.04L7.892 87.464L6.132 92.04H9.62ZM18.0751 100.744H14.8431V100.264H15.0351C15.2698 100.264 15.4405 100.227 15.5471 100.152C15.6645 100.077 15.7285 100.003 15.7391 99.928C15.7605 99.8533 15.7711 99.7307 15.7711 99.56V91.272C15.7711 90.7813 15.4618 90.536 14.8431 90.536V90.12C15.0458 90.12 15.3658 90.04 15.8031 89.88C16.2405 89.7093 16.5605 89.5547 16.7631 89.416L17.0511 89.384V91.4C17.2751 90.792 17.6378 90.296 18.1391 89.912C18.6405 89.5173 19.2591 89.32 19.9951 89.32C20.7311 89.32 21.3125 89.56 21.7391 90.04C22.1765 90.52 22.3951 91.1653 22.3951 91.976C22.3951 93.48 22.0005 94.7333 21.2111 95.736C20.4218 96.728 19.4618 97.224 18.3311 97.224C17.9365 97.224 17.5098 97.1173 17.0511 96.904V99.624C17.0511 99.7733 17.0618 99.8853 17.0831 99.96C17.1365 100.163 17.3605 100.264 17.7551 100.264H18.0751V100.744ZM17.0511 92.712V95.56C17.0938 95.624 17.1578 95.7093 17.2431 95.816C17.3285 95.9227 17.5045 96.0613 17.7711 96.232C18.0485 96.4027 18.3311 96.488 18.6191 96.488C19.3978 96.488 20.0431 96.12 20.5551 95.384C21.0778 94.648 21.3391 93.7147 21.3391 92.584C21.3391 91.9547 21.1418 91.4373 20.7471 91.032C20.3631 90.616 19.8778 90.408 19.2911 90.408C18.7151 90.408 18.1978 90.7333 17.7391 91.384C17.2805 92.024 17.0511 92.4667 17.0511 92.712ZM27.0819 97H23.6259V96.552H23.8819C24.1699 96.552 24.3512 96.504 24.4259 96.408C24.5112 96.312 24.5539 96.1573 24.5539 95.944V91.144C24.5539 90.9413 24.4845 90.7973 24.3459 90.712C24.2179 90.616 23.9779 90.568 23.6259 90.568V90.12C23.8392 90.12 24.1592 90.0453 24.5859 89.896C25.0232 89.736 25.3539 89.5867 25.5779 89.448L25.8659 89.384V91.368C26.2499 90.5253 26.6872 89.9707 27.1779 89.704C27.6685 89.4267 28.3939 89.288 29.3539 89.288L29.2579 91.144H28.7779C28.7779 90.9947 28.7192 90.8507 28.6019 90.712C28.4952 90.5733 28.3192 90.504 28.0739 90.504C27.5405 90.504 27.0392 90.792 26.5699 91.368C26.1005 91.944 25.8659 92.4987 25.8659 93.032V95.848C25.8659 96.0187 25.8712 96.1413 25.8819 96.216C25.9032 96.2907 25.9672 96.3653 26.0739 96.44C26.1805 96.5147 26.3459 96.552 26.5699 96.552H27.0819V97ZM36.2066 95.048L36.4946 95.336C35.812 96.5947 34.5853 97.224 32.8146 97.224C31.9933 97.224 31.2893 96.8613 30.7026 96.136C30.1266 95.4107 29.8386 94.6 29.8386 93.704C29.8386 92.4987 30.228 91.4693 31.0066 90.616C31.796 89.752 32.7506 89.32 33.8706 89.32C34.404 89.32 34.8733 89.4747 35.2786 89.784C36.004 90.3493 36.3666 91.08 36.3666 91.976C36.3666 92.104 36.34 92.2587 36.2866 92.44C36.244 92.6213 36.2066 92.712 36.1746 92.712L31.0226 92.872C31.0226 93.704 31.284 94.472 31.8066 95.176C32.3293 95.88 32.964 96.232 33.7106 96.232C34.244 96.232 34.7346 96.1253 35.1826 95.912C35.6413 95.688 35.9826 95.4 36.2066 95.048ZM31.1826 92.232L34.9266 92.072C34.948 92.072 34.9586 91.976 34.9586 91.784C34.9586 91.2293 34.7933 90.8347 34.4626 90.6C34.1426 90.3653 33.6946 90.248 33.1186 90.248C32.5533 90.248 32.0893 90.424 31.7266 90.776C31.364 91.128 31.1826 91.6133 31.1826 92.232ZM45.9094 97H43.1574V96.552H43.2214C43.3387 96.552 43.4347 96.4933 43.5094 96.376C43.5947 96.2587 43.6374 96.1147 43.6374 95.944V91.88C43.6374 91.4 43.52 91.0373 43.2854 90.792C43.0614 90.536 42.7414 90.408 42.3254 90.408C41.728 90.408 41.2 90.728 40.7414 91.368C40.2827 92.008 40.0534 92.488 40.0534 92.808V95.848C40.0534 96.0187 40.0587 96.1413 40.0694 96.216C40.0907 96.2907 40.1547 96.3653 40.2614 96.44C40.368 96.5147 40.5334 96.552 40.7574 96.552H41.0454V97H37.8134V96.552H38.0694C38.3574 96.552 38.5387 96.504 38.6134 96.408C38.6987 96.312 38.7414 96.1573 38.7414 95.944V91.144C38.7414 90.9413 38.672 90.7973 38.5334 90.712C38.4054 90.616 38.1654 90.568 37.8134 90.568V90.12C38.0267 90.12 38.3467 90.0453 38.7734 89.896C39.2107 89.736 39.5414 89.5867 39.7654 89.448L40.0534 89.384V91.432C40.2987 90.76 40.6774 90.2427 41.1894 89.88C41.7014 89.5067 42.3254 89.32 43.0614 89.32C43.4454 89.32 43.7707 89.4053 44.0374 89.576C44.304 89.7467 44.496 89.9653 44.6134 90.232C44.816 90.6907 44.9174 91.144 44.9174 91.592V95.912C44.9174 96.0613 44.928 96.1733 44.9494 96.248C45.0027 96.4507 45.2267 96.552 45.6214 96.552H45.9094V97ZM54.5804 97H52.2764V95.144C52.0524 95.752 51.6897 96.2533 51.1884 96.648C50.687 97.032 50.063 97.224 49.3164 97.224C48.5804 97.224 47.999 96.984 47.5724 96.504C47.1457 96.024 46.9324 95.3787 46.9324 94.568C46.9324 93.064 47.3217 91.816 48.1004 90.824C48.8897 89.8213 49.855 89.32 50.9964 89.32C51.2524 89.32 51.679 89.4267 52.2764 89.64V86.44C52.2764 86.2373 52.207 86.0933 52.0684 86.008C51.9297 85.912 51.6897 85.864 51.3484 85.864V85.416C51.5724 85.416 51.903 85.3573 52.3404 85.24C52.7777 85.1227 53.087 85 53.2684 84.872L53.5564 84.808V95.912C53.5564 96.1147 53.5937 96.264 53.6684 96.36C53.7537 96.4453 53.951 96.488 54.2604 96.488H54.5804V97ZM52.2764 93.832V90.984C52.2337 90.92 52.1697 90.8347 52.0844 90.728C51.999 90.6213 51.8177 90.4827 51.5404 90.312C51.2737 90.1413 50.9964 90.056 50.7084 90.056C49.9297 90.056 49.279 90.424 48.7564 91.16C48.2444 91.896 47.9884 92.8293 47.9884 93.96C47.9884 94.5893 48.175 95.112 48.5484 95.528C48.9324 95.9333 49.4177 96.136 50.0044 96.136C50.6017 96.136 51.1297 95.816 51.5884 95.176C52.047 94.5253 52.2764 94.0773 52.2764 93.832ZM62.8348 97H60.5308V95.72C59.9974 96.296 59.5548 96.6907 59.2028 96.904C58.8508 97.1173 58.3708 97.224 57.7628 97.224C57.1654 97.224 56.6961 97.0853 56.3548 96.808C56.0241 96.52 55.8588 96.12 55.8588 95.608C55.8588 95.096 56.0774 94.6 56.5148 94.12C56.9628 93.6293 57.4801 93.2613 58.0668 93.016C58.6641 92.76 59.1868 92.568 59.6348 92.44C60.0828 92.3013 60.3814 92.232 60.5308 92.232V91.88C60.5308 90.8773 60.1148 90.376 59.2828 90.376C58.7068 90.376 58.1681 90.4987 57.6668 90.744C57.1761 90.9893 56.8081 91.304 56.5628 91.688L56.2428 91.4C56.9574 90.0133 58.1948 89.32 59.9548 89.32C60.4028 89.32 60.7708 89.4427 61.0588 89.688C61.3574 89.9227 61.5548 90.2 61.6508 90.52C61.7574 90.84 61.8108 91.1973 61.8108 91.592V95.912C61.8108 96.0507 61.8214 96.1573 61.8428 96.232C61.8641 96.3067 61.9281 96.3813 62.0348 96.456C62.1521 96.52 62.3228 96.552 62.5468 96.552H62.8348V97ZM60.5308 94.824V92.872C59.6988 93.032 58.9254 93.352 58.2108 93.832C57.4961 94.312 57.1388 94.8347 57.1388 95.4C57.1388 95.624 57.2454 95.8213 57.4588 95.992C57.6828 96.152 57.9548 96.232 58.2748 96.232C58.6054 96.232 58.9948 96.088 59.4427 95.8C59.8908 95.5013 60.2534 95.176 60.5308 94.824ZM64.623 99.304L64.367 98.984C64.9537 98.536 65.3163 97.9493 65.455 97.224C65.231 97.224 65.0497 97.1493 64.911 97C64.783 96.8613 64.719 96.6693 64.719 96.424C64.719 96.168 64.8203 95.9493 65.023 95.768C65.2257 95.5867 65.4497 95.496 65.695 95.496C65.9403 95.496 66.127 95.5653 66.255 95.704C66.383 95.8427 66.447 96.0187 66.447 96.232C66.447 96.7227 66.3137 97.2027 66.047 97.672C65.791 98.152 65.5457 98.4987 65.311 98.712C65.087 98.936 64.8577 99.1333 64.623 99.304ZM77.8316 95.048L78.1196 95.336C77.437 96.5947 76.2103 97.224 74.4396 97.224C73.6183 97.224 72.9143 96.8613 72.3276 96.136C71.7516 95.4107 71.4636 94.6 71.4636 93.704C71.4636 92.4987 71.853 91.4693 72.6316 90.616C73.421 89.752 74.3756 89.32 75.4956 89.32C76.029 89.32 76.4983 89.4747 76.9036 89.784C77.629 90.3493 77.9916 91.08 77.9916 91.976C77.9916 92.104 77.965 92.2587 77.9116 92.44C77.869 92.6213 77.8316 92.712 77.7996 92.712L72.6476 92.872C72.6476 93.704 72.909 94.472 73.4316 95.176C73.9543 95.88 74.589 96.232 75.3356 96.232C75.869 96.232 76.3596 96.1253 76.8076 95.912C77.2663 95.688 77.6076 95.4 77.8316 95.048ZM72.8076 92.232L76.5516 92.072C76.573 92.072 76.5836 91.976 76.5836 91.784C76.5836 91.2293 76.4183 90.8347 76.0876 90.6C75.7676 90.3653 75.3196 90.248 74.7436 90.248C74.1783 90.248 73.7143 90.424 73.3516 90.776C72.989 91.128 72.8076 91.6133 72.8076 92.232ZM87.5344 97H84.7824V96.552H84.8464C84.9637 96.552 85.0597 96.4933 85.1344 96.376C85.2197 96.2587 85.2624 96.1147 85.2624 95.944V91.88C85.2624 91.4 85.145 91.0373 84.9104 90.792C84.6864 90.536 84.3664 90.408 83.9504 90.408C83.353 90.408 82.825 90.728 82.3664 91.368C81.9077 92.008 81.6784 92.488 81.6784 92.808V95.848C81.6784 96.0187 81.6837 96.1413 81.6944 96.216C81.7157 96.2907 81.7797 96.3653 81.8864 96.44C81.993 96.5147 82.1584 96.552 82.3824 96.552H82.6704V97H79.4384V96.552H79.6944C79.9824 96.552 80.1637 96.504 80.2384 96.408C80.3237 96.312 80.3664 96.1573 80.3664 95.944V91.144C80.3664 90.9413 80.297 90.7973 80.1584 90.712C80.0304 90.616 79.7904 90.568 79.4384 90.568V90.12C79.6517 90.12 79.9717 90.0453 80.3984 89.896C80.8357 89.736 81.1664 89.5867 81.3904 89.448L81.6784 89.384V91.432C81.9237 90.76 82.3024 90.2427 82.8144 89.88C83.3264 89.5067 83.9504 89.32 84.6864 89.32C85.0704 89.32 85.3957 89.4053 85.6624 89.576C85.929 89.7467 86.121 89.9653 86.2384 90.232C86.441 90.6907 86.5424 91.144 86.5424 91.592V95.912C86.5424 96.0613 86.553 96.1733 86.5744 96.248C86.6277 96.4507 86.8517 96.552 87.2464 96.552H87.5344V97ZM93.2473 96.008L93.3753 96.392C92.5753 96.9467 91.7006 97.224 90.7513 97.224C90.4099 97.224 90.1166 97.1013 89.8713 96.856C89.6259 96.6107 89.5033 96.2853 89.5033 95.88V90.216H88.5753V89.544H88.9273C89.2793 89.544 89.6046 89.3307 89.9033 88.904C90.2126 88.4773 90.3673 88.0827 90.3673 87.72H90.7833V89.544H92.9593V90.216H91.3913C90.9859 90.216 90.7833 90.408 90.7833 90.792V95.368C90.7833 96.072 91.0393 96.424 91.5513 96.424C92.1273 96.424 92.6926 96.2853 93.2473 96.008ZM100.254 95.048L100.542 95.336C99.8588 96.5947 98.6322 97.224 96.8615 97.224C96.0402 97.224 95.3362 96.8613 94.7495 96.136C94.1735 95.4107 93.8855 94.6 93.8855 93.704C93.8855 92.4987 94.2748 91.4693 95.0535 90.616C95.8428 89.752 96.7975 89.32 97.9175 89.32C98.4508 89.32 98.9202 89.4747 99.3255 89.784C100.051 90.3493 100.414 91.08 100.414 91.976C100.414 92.104 100.387 92.2587 100.334 92.44C100.291 92.6213 100.254 92.712 100.222 92.712L95.0695 92.872C95.0695 93.704 95.3308 94.472 95.8535 95.176C96.3762 95.88 97.0108 96.232 97.7575 96.232C98.2908 96.232 98.7815 96.1253 99.2295 95.912C99.6882 95.688 100.03 95.4 100.254 95.048ZM95.2295 92.232L98.9735 92.072C98.9948 92.072 99.0055 91.976 99.0055 91.784C99.0055 91.2293 98.8402 90.8347 98.5095 90.6C98.1895 90.3653 97.7415 90.248 97.1655 90.248C96.6002 90.248 96.1362 90.424 95.7735 90.776C95.4108 91.128 95.2295 91.6133 95.2295 92.232ZM109.956 97H107.204V96.552H107.268C107.386 96.552 107.482 96.4933 107.556 96.376C107.642 96.2587 107.684 96.1147 107.684 95.944V91.88C107.684 91.4 107.567 91.0373 107.332 90.792C107.108 90.536 106.788 90.408 106.372 90.408C105.775 90.408 105.247 90.728 104.788 91.368C104.33 92.008 104.1 92.488 104.1 92.808V95.848C104.1 96.0187 104.106 96.1413 104.116 96.216C104.138 96.2907 104.202 96.3653 104.308 96.44C104.415 96.5147 104.58 96.552 104.804 96.552H105.092V97H101.86V96.552H102.116C102.404 96.552 102.586 96.504 102.66 96.408C102.746 96.312 102.788 96.1573 102.788 95.944V91.144C102.788 90.9413 102.719 90.7973 102.58 90.712C102.452 90.616 102.212 90.568 101.86 90.568V90.12C102.074 90.12 102.394 90.0453 102.82 89.896C103.258 89.736 103.588 89.5867 103.812 89.448L104.1 89.384V91.432C104.346 90.76 104.724 90.2427 105.236 89.88C105.748 89.5067 106.372 89.32 107.108 89.32C107.492 89.32 107.818 89.4053 108.084 89.576C108.351 89.7467 108.543 89.9653 108.66 90.232C108.863 90.6907 108.964 91.144 108.964 91.592V95.912C108.964 96.0613 108.975 96.1733 108.996 96.248C109.05 96.4507 109.274 96.552 109.668 96.552H109.956V97ZM118.627 97H116.323V95.144C116.099 95.752 115.737 96.2533 115.235 96.648C114.734 97.032 114.11 97.224 113.363 97.224C112.627 97.224 112.046 96.984 111.619 96.504C111.193 96.024 110.979 95.3787 110.979 94.568C110.979 93.064 111.369 91.816 112.147 90.824C112.937 89.8213 113.902 89.32 115.043 89.32C115.299 89.32 115.726 89.4267 116.323 89.64V86.44C116.323 86.2373 116.254 86.0933 116.115 86.008C115.977 85.912 115.737 85.864 115.395 85.864V85.416C115.619 85.416 115.95 85.3573 116.387 85.24C116.825 85.1227 117.134 85 117.315 84.872L117.603 84.808V95.912C117.603 96.1147 117.641 96.264 117.715 96.36C117.801 96.4453 117.998 96.488 118.307 96.488H118.627V97ZM116.323 93.832V90.984C116.281 90.92 116.217 90.8347 116.131 90.728C116.046 90.6213 115.865 90.4827 115.587 90.312C115.321 90.1413 115.043 90.056 114.755 90.056C113.977 90.056 113.326 90.424 112.803 91.16C112.291 91.896 112.035 92.8293 112.035 93.96C112.035 94.5893 112.222 95.112 112.595 95.528C112.979 95.9333 113.465 96.136 114.051 96.136C114.649 96.136 115.177 95.816 115.635 95.176C116.094 94.5253 116.323 94.0773 116.323 93.832ZM126.882 97H124.578V95.72C124.044 96.296 123.602 96.6907 123.25 96.904C122.898 97.1173 122.418 97.224 121.81 97.224C121.212 97.224 120.743 97.0853 120.402 96.808C120.071 96.52 119.906 96.12 119.906 95.608C119.906 95.096 120.124 94.6 120.562 94.12C121.01 93.6293 121.527 93.2613 122.114 93.016C122.711 92.76 123.234 92.568 123.682 92.44C124.13 92.3013 124.428 92.232 124.578 92.232V91.88C124.578 90.8773 124.162 90.376 123.33 90.376C122.754 90.376 122.215 90.4987 121.714 90.744C121.223 90.9893 120.855 91.304 120.61 91.688L120.29 91.4C121.004 90.0133 122.242 89.32 124.002 89.32C124.45 89.32 124.818 89.4427 125.106 89.688C125.404 89.9227 125.602 90.2 125.698 90.52C125.804 90.84 125.858 91.1973 125.858 91.592V95.912C125.858 96.0507 125.868 96.1573 125.89 96.232C125.911 96.3067 125.975 96.3813 126.082 96.456C126.199 96.52 126.37 96.552 126.594 96.552H126.882V97ZM124.578 94.824V92.872C123.746 93.032 122.972 93.352 122.258 93.832C121.543 94.312 121.186 94.8347 121.186 95.4C121.186 95.624 121.292 95.8213 121.506 95.992C121.73 96.152 122.002 96.232 122.322 96.232C122.652 96.232 123.042 96.088 123.49 95.8C123.938 95.5013 124.3 95.176 124.578 94.824ZM128.67 99.304L128.414 98.984C129.001 98.536 129.363 97.9493 129.502 97.224C129.278 97.224 129.097 97.1493 128.958 97C128.83 96.8613 128.766 96.6693 128.766 96.424C128.766 96.168 128.867 95.9493 129.07 95.768C129.273 95.5867 129.497 95.496 129.742 95.496C129.987 95.496 130.174 95.5653 130.302 95.704C130.43 95.8427 130.494 96.0187 130.494 96.232C130.494 96.7227 130.361 97.2027 130.094 97.672C129.838 98.152 129.593 98.4987 129.358 98.712C129.134 98.936 128.905 99.1333 128.67 99.304ZM139.223 97H135.767V96.552H136.023C136.311 96.552 136.492 96.504 136.567 96.408C136.652 96.312 136.695 96.1573 136.695 95.944V91.144C136.695 90.9413 136.625 90.7973 136.487 90.712C136.359 90.616 136.119 90.568 135.767 90.568V90.12C135.98 90.12 136.3 90.0453 136.727 89.896C137.164 89.736 137.495 89.5867 137.719 89.448L138.007 89.384V91.368C138.391 90.5253 138.828 89.9707 139.319 89.704C139.809 89.4267 140.535 89.288 141.495 89.288L141.399 91.144H140.919C140.919 90.9947 140.86 90.8507 140.743 90.712C140.636 90.5733 140.46 90.504 140.215 90.504C139.681 90.504 139.18 90.792 138.711 91.368C138.241 91.944 138.007 92.4987 138.007 93.032V95.848C138.007 96.0187 138.012 96.1413 138.023 96.216C138.044 96.2907 138.108 96.3653 138.215 96.44C138.321 96.5147 138.487 96.552 138.711 96.552H139.223V97ZM148.347 95.048L148.635 95.336C147.953 96.5947 146.726 97.224 144.955 97.224C144.134 97.224 143.43 96.8613 142.843 96.136C142.267 95.4107 141.979 94.6 141.979 93.704C141.979 92.4987 142.369 91.4693 143.147 90.616C143.937 89.752 144.891 89.32 146.011 89.32C146.545 89.32 147.014 89.4747 147.419 89.784C148.145 90.3493 148.507 91.08 148.507 91.976C148.507 92.104 148.481 92.2587 148.427 92.44C148.385 92.6213 148.347 92.712 148.315 92.712L143.163 92.872C143.163 93.704 143.425 94.472 143.947 95.176C144.47 95.88 145.105 96.232 145.851 96.232C146.385 96.232 146.875 96.1253 147.323 95.912C147.782 95.688 148.123 95.4 148.347 95.048ZM143.323 92.232L147.067 92.072C147.089 92.072 147.099 91.976 147.099 91.784C147.099 91.2293 146.934 90.8347 146.603 90.6C146.283 90.3653 145.835 90.248 145.259 90.248C144.694 90.248 144.23 90.424 143.867 90.776C143.505 91.128 143.323 91.6133 143.323 92.232ZM149.954 96.552L150.114 94.824L150.562 94.856C150.562 95.2187 150.797 95.5653 151.266 95.896C151.735 96.2267 152.242 96.392 152.786 96.392C153.906 96.392 154.466 96.0507 154.466 95.368C154.466 95.0267 154.322 94.7227 154.034 94.456C153.746 94.1893 153.399 93.9707 152.994 93.8C152.589 93.6187 152.183 93.4373 151.778 93.256C151.373 93.064 151.026 92.8187 150.738 92.52C150.45 92.2107 150.306 91.8587 150.306 91.464C150.306 90.0773 151.33 89.384 153.378 89.384C153.837 89.384 154.338 89.512 154.882 89.768L154.786 91.368H154.402C154.402 91.0693 154.226 90.7813 153.874 90.504C153.533 90.2267 153.159 90.088 152.754 90.088C152.349 90.088 152.002 90.168 151.714 90.328C151.437 90.488 151.298 90.728 151.298 91.048C151.298 91.3573 151.442 91.6133 151.73 91.816C152.018 92.0187 152.365 92.184 152.77 92.312C153.175 92.44 153.581 92.584 153.986 92.744C154.391 92.904 154.738 93.1653 155.026 93.528C155.314 93.8907 155.458 94.344 155.458 94.888C155.458 95.432 155.282 95.8853 154.93 96.248C154.301 96.8987 153.389 97.224 152.194 97.224C151.266 97.224 150.519 97 149.954 96.552ZM159.869 97.224C158.93 97.224 158.146 96.872 157.517 96.168C156.888 95.464 156.573 94.6427 156.573 93.704C156.573 92.5093 157.021 91.48 157.917 90.616C158.824 89.752 159.778 89.32 160.781 89.32C161.784 89.32 162.589 89.6773 163.197 90.392C163.816 91.096 164.125 91.912 164.125 92.84C164.125 94.0027 163.693 95.0267 162.829 95.912C161.976 96.7867 160.989 97.224 159.869 97.224ZM157.693 92.84C157.693 93.832 157.992 94.6587 158.589 95.32C159.197 95.9707 159.874 96.296 160.621 96.296C161.378 96.296 161.97 96.0133 162.397 95.448C162.824 94.8827 163.037 94.3013 163.037 93.704C163.037 92.7973 162.754 92.008 162.189 91.336C161.634 90.6533 160.957 90.312 160.157 90.312C159.357 90.312 158.744 90.584 158.317 91.128C157.901 91.6613 157.693 92.232 157.693 92.84ZM168.386 97H165.186V96.552H165.41C165.645 96.552 165.815 96.504 165.922 96.408C166.029 96.3013 166.082 96.1253 166.082 95.88V86.44C166.082 86.2373 166.013 86.0933 165.874 86.008C165.735 85.912 165.495 85.864 165.154 85.864V85.416C165.367 85.416 165.693 85.3573 166.13 85.24C166.578 85.1227 166.903 85 167.106 84.872L167.394 84.808V95.848C167.394 96.0187 167.399 96.1413 167.41 96.216C167.431 96.2907 167.495 96.3653 167.602 96.44C167.709 96.5147 167.874 96.552 168.098 96.552H168.386V97ZM172.551 97.224L170.119 90.728C170.023 90.4827 169.917 90.3067 169.799 90.2C169.693 90.0827 169.522 90.024 169.287 90.024H169.063V89.544H172.039L172.007 90.024H171.847C171.527 90.024 171.367 90.12 171.367 90.312C171.367 90.44 171.378 90.5253 171.399 90.568L173.191 95.272L175.015 90.664C175.101 90.4933 175.143 90.36 175.143 90.264C175.143 90.168 175.085 90.104 174.967 90.072C174.861 90.04 174.61 90.024 174.215 90.024H174.023V89.544H177.031V90.024H176.903C176.562 90.024 176.317 90.0773 176.167 90.184C176.029 90.2907 175.901 90.4933 175.783 90.792L173.671 96.2C173.586 96.2 173.421 96.344 173.175 96.632C172.93 96.9093 172.807 97.0853 172.807 97.16L172.551 97.224ZM184.147 97H181.843V95.72C181.31 96.296 180.867 96.6907 180.515 96.904C180.163 97.1173 179.683 97.224 179.075 97.224C178.478 97.224 178.009 97.0853 177.667 96.808C177.337 96.52 177.171 96.12 177.171 95.608C177.171 95.096 177.39 94.6 177.827 94.12C178.275 93.6293 178.793 93.2613 179.379 93.016C179.977 92.76 180.499 92.568 180.947 92.44C181.395 92.3013 181.694 92.232 181.843 92.232V91.88C181.843 90.8773 181.427 90.376 180.595 90.376C180.019 90.376 179.481 90.4987 178.979 90.744C178.489 90.9893 178.121 91.304 177.875 91.688L177.555 91.4C178.27 90.0133 179.507 89.32 181.267 89.32C181.715 89.32 182.083 89.4427 182.371 89.688C182.67 89.9227 182.867 90.2 182.963 90.52C183.07 90.84 183.123 91.1973 183.123 91.592V95.912C183.123 96.0507 183.134 96.1573 183.155 96.232C183.177 96.3067 183.241 96.3813 183.347 96.456C183.465 96.52 183.635 96.552 183.859 96.552H184.147V97ZM181.843 94.824V92.872C181.011 93.032 180.238 93.352 179.523 93.832C178.809 94.312 178.451 94.8347 178.451 95.4C178.451 95.624 178.558 95.8213 178.771 95.992C178.995 96.152 179.267 96.232 179.587 96.232C179.918 96.232 180.307 96.088 180.755 95.8C181.203 95.5013 181.566 95.176 181.843 94.824Z" fill="#171717"/>
</svg>
