<svg width="126" height="49" viewBox="0 0 126 49" fill="none" xmlns="http://www.w3.org/2000/svg">
<path d="M73.2261 19.9913L62.8045 24.8956C62.6645 24.9614 62.502 24.9588 62.3642 24.8885L53.0465 20.1305C52.8792 20.0451 52.7739 19.8731 52.7739 19.6852V15.9926C52.7739 15.6228 53.1615 15.381 53.4937 15.5435L62.3627 19.8837C62.5014 19.9516 62.6638 19.9515 62.8025 19.8835L72.9462 14.9111C73.1175 14.8271 73.2261 14.653 73.2261 14.4622V10.3585C73.2261 9.98849 72.8382 9.74665 72.506 9.9095L62.8025 14.6661C62.6638 14.7341 62.5014 14.7342 62.3627 14.6663L53.0541 10.111C52.8827 10.0271 52.7739 9.85286 52.7739 9.66194V4.89868C52.7739 4.68811 52.9058 4.50011 53.1039 4.42849L62.4054 1.06409C62.5196 1.02278 62.645 1.02445 62.758 1.06879L72.1211 4.74058C72.5331 4.90216 72.5476 5.47992 72.1441 5.66186L62.7913 9.8798C62.6588 9.93956 62.5068 9.9387 62.375 9.87744L55.65 6.75217" stroke="#4E0606" stroke-width="1.6" stroke-linecap="round"/>
<line x1="55.5256" y1="8.89751" x2="60.8803" y2="11.3964" stroke="#4E0606" stroke-linecap="round"/>
<path d="M55.2783 13.7304L61.1217 16.6521" stroke="#4E0606" stroke-linecap="round"/>
<line x1="55.5256" y1="18.9148" x2="60.8803" y2="21.4137" stroke="#4E0606" stroke-linecap="round"/>
<path d="M10.416 46H4.176V45.328H5.136C5.616 45.328 5.92 45.24 6.048 45.064C6.176 44.872 6.24 44.608 6.24 44.272V31.312C6.24 31.072 6.224 30.888 6.192 30.76C6.16 30.616 6.056 30.488 5.88 30.376C5.72 30.264 5.472 30.208 5.136 30.208H3.696C2.848 30.208 2.192 30.472 1.728 31C1.28 31.512 1.04 32.064 1.008 32.656L0.336 32.512L0.576 29.2H14.064L14.304 32.512L13.632 32.656C13.6 32.08 13.352 31.528 12.888 31C12.424 30.472 11.776 30.208 10.944 30.208H9.504C9.152 30.208 8.888 30.272 8.712 30.4C8.536 30.512 8.432 30.632 8.4 30.76C8.368 30.888 8.352 31.072 8.352 31.312V44.272C8.352 44.496 8.368 44.672 8.4 44.8C8.432 44.928 8.536 45.048 8.712 45.16C8.888 45.272 9.152 45.328 9.504 45.328H10.416V46ZM23.9115 43.072L24.3435 43.504C23.3195 45.392 21.4795 46.336 18.8235 46.336C17.5915 46.336 16.5355 45.792 15.6555 44.704C14.7915 43.616 14.3595 42.4 14.3595 41.056C14.3595 39.248 14.9435 37.704 16.1115 36.424C17.2955 35.128 18.7275 34.48 20.4075 34.48C21.2075 34.48 21.9115 34.712 22.5195 35.176C23.6075 36.024 24.1515 37.12 24.1515 38.464C24.1515 38.656 24.1115 38.888 24.0315 39.16C23.9675 39.432 23.9115 39.568 23.8635 39.568L16.1355 39.808C16.1355 41.056 16.5275 42.208 17.3115 43.264C18.0955 44.32 19.0475 44.848 20.1675 44.848C20.9675 44.848 21.7035 44.688 22.3755 44.368C23.0635 44.032 23.5755 43.6 23.9115 43.072ZM16.3755 38.848L21.9915 38.608C22.0235 38.608 22.0395 38.464 22.0395 38.176C22.0395 37.344 21.7915 36.752 21.2955 36.4C20.8155 36.048 20.1435 35.872 19.2795 35.872C18.4315 35.872 17.7355 36.136 17.1915 36.664C16.6475 37.192 16.3755 37.92 16.3755 38.848ZM35.4896 43.072L35.9216 43.504C34.8976 45.392 33.0576 46.336 30.4016 46.336C29.1696 46.336 28.1136 45.792 27.2336 44.704C26.3696 43.616 25.9376 42.4 25.9376 41.056C25.9376 40.192 26.1456 39.328 26.5616 38.464C26.9936 37.584 27.4336 36.888 27.8816 36.376C28.3456 35.848 28.9696 35.4 29.7536 35.032C30.5536 34.664 31.3936 34.48 32.2736 34.48C33.1536 34.48 34.0656 34.656 35.0096 35.008L34.8656 37.216H34.1456C34.1456 36.8 33.8816 36.456 33.3536 36.184C32.8416 35.912 32.2656 35.776 31.6256 35.776C30.9856 35.776 30.4096 35.88 29.8976 36.088C29.3856 36.28 28.9936 36.52 28.7216 36.808C28.4656 37.096 28.2576 37.44 28.0976 37.84C27.8416 38.432 27.7136 39.088 27.7136 39.808C27.7136 41.056 28.1056 42.208 28.8896 43.264C29.6736 44.32 30.6256 44.848 31.7456 44.848C32.5456 44.848 33.2816 44.688 33.9536 44.368C34.6416 44.032 35.1536 43.6 35.4896 43.072ZM49.7391 46H45.6111V45.328H45.7071C45.8831 45.328 46.0271 45.24 46.1391 45.064C46.2671 44.888 46.3311 44.672 46.3311 44.416V38.32C46.3311 37.6 46.1551 37.056 45.8031 36.688C45.4671 36.304 44.9871 36.112 44.3631 36.112C43.4671 36.112 42.6751 36.592 41.9871 37.552C41.2991 38.512 40.9551 39.232 40.9551 39.712V44.272C40.9551 44.528 40.9631 44.712 40.9791 44.824C41.0111 44.936 41.1071 45.048 41.2671 45.16C41.4271 45.272 41.6751 45.328 42.0111 45.328H42.4431V46H37.5951V45.328H37.9791C38.4111 45.328 38.6831 45.256 38.7951 45.112C38.9231 44.968 38.9871 44.736 38.9871 44.416V37.216C38.9871 36.912 38.8831 36.696 38.6751 36.568C38.4831 36.424 38.1231 36.352 37.5951 36.352V35.68C37.9151 35.68 38.3951 35.568 39.0351 35.344C39.6911 35.104 40.1871 34.88 40.5231 34.672L40.9551 34.576V37.648C41.3231 36.64 41.8911 35.864 42.6591 35.32C43.4271 34.76 44.3631 34.48 45.4671 34.48C46.0431 34.48 46.5311 34.608 46.9311 34.864C47.3311 35.12 47.6191 35.448 47.7951 35.848C48.0991 36.536 48.2511 37.216 48.2511 37.888V44.368C48.2511 44.592 48.2671 44.76 48.2991 44.872C48.3791 45.176 48.7151 45.328 49.3071 45.328H49.7391V46ZM56.2176 46.336C54.8096 46.336 53.6336 45.808 52.6896 44.752C51.7456 43.696 51.2736 42.464 51.2736 41.056C51.2736 39.264 51.9456 37.72 53.2896 36.424C54.6496 35.128 56.0816 34.48 57.5856 34.48C59.0896 34.48 60.2976 35.016 61.2096 36.088C62.1376 37.144 62.6016 38.368 62.6016 39.76C62.6016 41.504 61.9536 43.04 60.6576 44.368C59.3776 45.68 57.8976 46.336 56.2176 46.336ZM52.9536 39.76C52.9536 41.248 53.4016 42.488 54.2976 43.48C55.2096 44.456 56.2256 44.944 57.3456 44.944C58.4816 44.944 59.3696 44.52 60.0096 43.672C60.6496 42.824 60.9696 41.952 60.9696 41.056C60.9696 39.696 60.5456 38.512 59.6976 37.504C58.8656 36.48 57.8496 35.968 56.6496 35.968C55.4496 35.968 54.5296 36.376 53.8896 37.192C53.2656 37.992 52.9536 38.848 52.9536 39.76Z" fill="#E63946"/>
<path d="M70.8911 46.336L70.5071 46.48L64.6031 30.976C64.4591 30.624 64.2911 30.36 64.0991 30.184C63.9231 30.008 63.6591 29.92 63.3071 29.92H62.4911V29.2H68.5871V29.92H67.7711C67.0991 29.92 66.7631 30.128 66.7631 30.544C66.7631 30.736 66.8431 31.024 67.0031 31.408L71.6591 43.504L76.4591 31.024L76.6991 30.304C76.6991 30.144 76.6031 30.04 76.4111 29.992C76.2191 29.944 75.8351 29.92 75.2591 29.92H74.7311V29.2H79.4831V29.92H79.1951C78.6511 29.92 78.2511 30.008 77.9951 30.184C77.7551 30.36 77.5631 30.672 77.4191 31.12L72.1391 44.848C71.5631 45.264 71.1471 45.76 70.8911 46.336ZM88.9271 43.072L89.3591 43.504C88.3351 45.392 86.4951 46.336 83.8391 46.336C82.6071 46.336 81.5511 45.792 80.6711 44.704C79.8071 43.616 79.3751 42.4 79.3751 41.056C79.3751 39.248 79.9591 37.704 81.1271 36.424C82.3111 35.128 83.7431 34.48 85.4231 34.48C86.2231 34.48 86.9271 34.712 87.5351 35.176C88.6231 36.024 89.1671 37.12 89.1671 38.464C89.1671 38.656 89.1271 38.888 89.0471 39.16C88.9831 39.432 88.9271 39.568 88.8791 39.568L81.1511 39.808C81.1511 41.056 81.5431 42.208 82.3271 43.264C83.1111 44.32 84.0631 44.848 85.1831 44.848C85.9831 44.848 86.7191 44.688 87.3911 44.368C88.0791 44.032 88.5911 43.6 88.9271 43.072ZM81.3911 38.848L87.0071 38.608C87.0391 38.608 87.0551 38.464 87.0551 38.176C87.0551 37.344 86.8071 36.752 86.3111 36.4C85.8311 36.048 85.1591 35.872 84.2951 35.872C83.4471 35.872 82.7511 36.136 82.2071 36.664C81.6631 37.192 81.3911 37.92 81.3911 38.848ZM96.4041 46H91.2201V45.328H91.6041C92.0361 45.328 92.3081 45.256 92.4201 45.112C92.5481 44.968 92.6121 44.736 92.6121 44.416V37.216C92.6121 36.912 92.5081 36.696 92.3001 36.568C92.1081 36.424 91.7481 36.352 91.2201 36.352V35.68C91.5401 35.68 92.0201 35.568 92.6601 35.344C93.3161 35.104 93.8121 34.88 94.1481 34.672L94.5801 34.576V37.552C95.1561 36.288 95.8121 35.456 96.5481 35.056C97.2841 34.64 98.3721 34.432 99.8121 34.432L99.6681 37.216H98.9481C98.9481 36.992 98.8601 36.776 98.6841 36.568C98.5241 36.36 98.2601 36.256 97.8921 36.256C97.0921 36.256 96.3401 36.688 95.6361 37.552C94.9321 38.416 94.5801 39.248 94.5801 40.048V44.272C94.5801 44.528 94.5881 44.712 94.6041 44.824C94.6361 44.936 94.7321 45.048 94.8921 45.16C95.0521 45.272 95.3001 45.328 95.6361 45.328H96.4041V46ZM101.932 44.848V30.16C101.932 29.856 101.828 29.64 101.62 29.512C101.428 29.368 101.068 29.296 100.54 29.296V28.624C100.892 28.624 101.388 28.536 102.028 28.36C102.684 28.184 103.164 28 103.468 27.808L103.9 27.712V37.648C104.22 36.72 104.756 35.96 105.508 35.368C106.26 34.776 107.188 34.48 108.292 34.48C109.412 34.48 110.292 34.848 110.932 35.584C111.588 36.304 111.916 37.28 111.916 38.512C111.916 40.768 111.324 42.64 110.14 44.128C108.956 45.6 107.5 46.336 105.772 46.336C105.164 46.336 104.46 46.152 103.66 45.784C102.876 45.416 102.3 45.104 101.932 44.848ZM103.9 39.568V43.84C104.044 44.128 104.268 44.392 104.572 44.632C105.148 45.064 105.692 45.28 106.204 45.28C107.356 45.28 108.324 44.728 109.108 43.624C109.892 42.504 110.284 41.104 110.284 39.424C110.284 38.464 109.996 37.672 109.42 37.048C108.86 36.424 108.14 36.112 107.26 36.112C106.396 36.112 105.62 36.6 104.932 37.576C104.244 38.536 103.9 39.2 103.9 39.568ZM118.444 46.336C117.036 46.336 115.86 45.808 114.916 44.752C113.972 43.696 113.5 42.464 113.5 41.056C113.5 39.264 114.172 37.72 115.516 36.424C116.876 35.128 118.308 34.48 119.812 34.48C121.316 34.48 122.524 35.016 123.436 36.088C124.364 37.144 124.828 38.368 124.828 39.76C124.828 41.504 124.18 43.04 122.884 44.368C121.604 45.68 120.124 46.336 118.444 46.336ZM115.18 39.76C115.18 41.248 115.628 42.488 116.524 43.48C117.436 44.456 118.452 44.944 119.572 44.944C120.708 44.944 121.596 44.52 122.236 43.672C122.876 42.824 123.196 41.952 123.196 41.056C123.196 39.696 122.772 38.512 121.924 37.504C121.092 36.48 120.076 35.968 118.876 35.968C117.676 35.968 116.756 36.376 116.116 37.192C115.492 37.992 115.18 38.848 115.18 39.76Z" fill="#457B9D"/>
</svg>
