<svg width="188" height="97" viewBox="0 0 188 97" fill="none" xmlns="http://www.w3.org/2000/svg">
<path d="M110 39.7143L94.2345 47.1334C93.6747 47.3968 93.0244 47.3863 92.4733 47.1049L79.0904 40.2711C78.4212 39.9294 78 39.2414 78 38.4899V35.4095C78 33.9301 79.5504 32.9628 80.8791 33.613L92.4671 39.2837C93.0222 39.5554 93.6716 39.5551 94.2265 39.2831L108.88 32.0999C109.566 31.764 110 31.0673 110 30.3041V26.5955C110 25.1156 108.449 24.1483 107.12 24.7997L94.2265 31.1199C93.6716 31.3919 93.0222 31.3921 92.4671 31.1205L79.1209 24.5893C78.4349 24.2537 78 23.5566 78 22.7929V16.9544C78 16.1122 78.5277 15.3602 79.3197 15.0737L92.6382 10.2564C93.095 10.0911 93.5964 10.0978 94.0486 10.2752L105.58 14.7973C107.228 15.4436 107.286 17.7547 105.672 18.4824L94.1817 23.6644C93.6516 23.9034 93.0438 23.9 92.5166 23.6549L82.5 19" stroke="#B85959" stroke-width="2.5" stroke-linecap="round"/>
<line x1="82.2624" y1="22.3721" x2="90.699" y2="26.3092" stroke="#B85959" stroke-width="1.5" stroke-linecap="round"/>
<path d="M81.9184 29.9184L91.0612 34.4898" stroke="#B85959" stroke-width="1.5" stroke-linecap="round"/>
<line x1="82.2624" y1="38.0457" x2="90.699" y2="41.9828" stroke="#B85959" stroke-width="1.5" stroke-linecap="round"/>
<path d="M23.888 78.551H15.568V77.655H16.848C17.488 77.655 17.8933 77.5377 18.064 77.303C18.2347 77.047 18.32 76.695 18.32 76.247V58.967C18.32 58.647 18.2987 58.4017 18.256 58.231C18.2133 58.039 18.0747 57.8684 17.84 57.719C17.6267 57.5697 17.296 57.495 16.848 57.495H14.928C13.7973 57.495 12.9227 57.847 12.304 58.551C11.7067 59.2337 11.3867 59.9697 11.344 60.759L10.448 60.567L10.768 56.151H28.752L29.072 60.567L28.176 60.759C28.1333 59.991 27.8027 59.255 27.184 58.551C26.5653 57.847 25.7013 57.495 24.592 57.495H22.672C22.2027 57.495 21.8507 57.5804 21.616 57.751C21.3813 57.9004 21.2427 58.0604 21.2 58.231C21.1573 58.4017 21.136 58.647 21.136 58.967V76.247C21.136 76.5457 21.1573 76.7804 21.2 76.951C21.2427 77.1217 21.3813 77.2817 21.616 77.431C21.8507 77.5804 22.2027 77.655 22.672 77.655H23.888V78.551ZM41.882 74.647L42.458 75.223C41.0927 77.7404 38.6393 78.999 35.098 78.999C33.4553 78.999 32.0473 78.2737 30.874 76.823C29.722 75.3724 29.146 73.751 29.146 71.959C29.146 69.5484 29.9247 67.4897 31.482 65.783C33.0607 64.055 34.97 63.191 37.21 63.191C38.2767 63.191 39.2153 63.5004 40.026 64.119C41.4767 65.2497 42.202 66.711 42.202 68.503C42.202 68.759 42.1487 69.0684 42.042 69.431C41.9567 69.7937 41.882 69.975 41.818 69.975L31.514 70.295C31.514 71.959 32.0367 73.495 33.082 74.903C34.1273 76.311 35.3967 77.015 36.89 77.015C37.9567 77.015 38.938 76.8017 39.834 76.375C40.7513 75.927 41.434 75.351 41.882 74.647ZM31.834 69.015L39.322 68.695C39.3647 68.695 39.386 68.503 39.386 68.119C39.386 67.0097 39.0553 66.2204 38.394 65.751C37.754 65.2817 36.858 65.047 35.706 65.047C34.5753 65.047 33.6473 65.399 32.922 66.103C32.1967 66.807 31.834 67.7777 31.834 69.015ZM57.3195 74.647L57.8955 75.223C56.5302 77.7404 54.0768 78.999 50.5355 78.999C48.8928 78.999 47.4848 78.2737 46.3115 76.823C45.1595 75.3724 44.5835 73.751 44.5835 71.959C44.5835 70.807 44.8608 69.655 45.4155 68.503C45.9915 67.3297 46.5782 66.4017 47.1755 65.719C47.7942 65.015 48.6262 64.4177 49.6715 63.927C50.7382 63.4364 51.8582 63.191 53.0315 63.191C54.2048 63.191 55.4208 63.4257 56.6795 63.895L56.4875 66.839H55.5275C55.5275 66.2844 55.1755 65.8257 54.4715 65.463C53.7888 65.1004 53.0208 64.919 52.1675 64.919C51.3142 64.919 50.5462 65.0577 49.8635 65.335C49.1808 65.591 48.6582 65.911 48.2955 66.295C47.9542 66.679 47.6768 67.1377 47.4635 67.671C47.1222 68.4604 46.9515 69.335 46.9515 70.295C46.9515 71.959 47.4742 73.495 48.5195 74.903C49.5648 76.311 50.8342 77.015 52.3275 77.015C53.3942 77.015 54.3755 76.8017 55.2715 76.375C56.1888 75.927 56.8715 75.351 57.3195 74.647ZM76.3188 78.551H70.8148V77.655H70.9428C71.1774 77.655 71.3694 77.5377 71.5188 77.303C71.6894 77.0684 71.7748 76.7804 71.7748 76.439V68.311C71.7748 67.351 71.5401 66.6257 71.0708 66.135C70.6228 65.623 69.9828 65.367 69.1508 65.367C67.9561 65.367 66.9001 66.007 65.9828 67.287C65.0654 68.567 64.6068 69.527 64.6068 70.167V76.247C64.6068 76.5884 64.6174 76.8337 64.6388 76.983C64.6814 77.1324 64.8094 77.2817 65.0228 77.431C65.2361 77.5804 65.5668 77.655 66.0148 77.655H66.5908V78.551H60.1268V77.655H60.6388C61.2148 77.655 61.5774 77.559 61.7268 77.367C61.8974 77.175 61.9828 76.8657 61.9828 76.439V66.839C61.9828 66.4337 61.8441 66.1457 61.5668 65.975C61.3108 65.783 60.8308 65.687 60.1268 65.687V64.791C60.5534 64.791 61.1934 64.6417 62.0468 64.343C62.9214 64.023 63.5828 63.7244 64.0308 63.447L64.6068 63.319V67.415C65.0974 66.071 65.8548 65.0364 66.8788 64.311C67.9028 63.5644 69.1508 63.191 70.6228 63.191C71.3908 63.191 72.0414 63.3617 72.5748 63.703C73.1081 64.0444 73.4921 64.4817 73.7268 65.015C74.1321 65.9324 74.3348 66.839 74.3348 67.735V76.375C74.3348 76.6737 74.3561 76.8977 74.3988 77.047C74.5054 77.4524 74.9534 77.655 75.7428 77.655H76.3188V78.551ZM84.9568 78.999C83.0794 78.999 81.5114 78.295 80.2528 76.887C78.9941 75.479 78.3648 73.8364 78.3648 71.959C78.3648 69.5697 79.2608 67.511 81.0528 65.783C82.8661 64.055 84.7754 63.191 86.7808 63.191C88.7861 63.191 90.3968 63.9057 91.6128 65.335C92.8501 66.743 93.4688 68.375 93.4688 70.231C93.4688 72.5564 92.6048 74.6044 90.8768 76.375C89.1701 78.1244 87.1968 78.999 84.9568 78.999ZM80.6048 70.231C80.6048 72.215 81.2021 73.8684 82.3968 75.191C83.6128 76.4924 84.9674 77.143 86.4608 77.143C87.9754 77.143 89.1594 76.5777 90.0128 75.447C90.8661 74.3164 91.2928 73.1537 91.2928 71.959C91.2928 70.1457 90.7274 68.567 89.5968 67.223C88.4874 65.8577 87.1328 65.175 85.5328 65.175C83.9328 65.175 82.7061 65.719 81.8528 66.807C81.0208 67.8737 80.6048 69.015 80.6048 70.231Z" fill="#00FF00"/>
<path d="M104.522 78.999L104.01 79.191L96.1375 58.519C95.9455 58.0497 95.7215 57.6977 95.4655 57.463C95.2308 57.2284 94.8788 57.111 94.4095 57.111H93.3215V56.151H101.45V57.111H100.362C99.4655 57.111 99.0175 57.3884 99.0175 57.943C99.0175 58.199 99.1242 58.583 99.3375 59.095L105.546 75.223L111.946 58.583L112.266 57.623C112.266 57.4097 112.138 57.271 111.882 57.207C111.626 57.143 111.114 57.111 110.346 57.111H109.642V56.151H115.978V57.111H115.594C114.868 57.111 114.335 57.2284 113.994 57.463C113.674 57.6977 113.418 58.1137 113.226 58.711L106.186 77.015C105.418 77.5697 104.863 78.231 104.522 78.999ZM128.57 74.647L129.146 75.223C127.78 77.7404 125.327 78.999 121.786 78.999C120.143 78.999 118.735 78.2737 117.562 76.823C116.41 75.3724 115.834 73.751 115.834 71.959C115.834 69.5484 116.612 67.4897 118.17 65.783C119.748 64.055 121.658 63.191 123.898 63.191C124.964 63.191 125.903 63.5004 126.714 64.119C128.164 65.2497 128.89 66.711 128.89 68.503C128.89 68.759 128.836 69.0684 128.73 69.431C128.644 69.7937 128.57 69.975 128.506 69.975L118.202 70.295C118.202 71.959 118.724 73.495 119.77 74.903C120.815 76.311 122.084 77.015 123.578 77.015C124.644 77.015 125.626 76.8017 126.522 76.375C127.439 75.927 128.122 75.351 128.57 74.647ZM118.522 69.015L126.01 68.695C126.052 68.695 126.074 68.503 126.074 68.119C126.074 67.0097 125.743 66.2204 125.082 65.751C124.442 65.2817 123.546 65.047 122.394 65.047C121.263 65.047 120.335 65.399 119.61 66.103C118.884 66.807 118.522 67.7777 118.522 69.015ZM138.539 78.551H131.627V77.655H132.139C132.715 77.655 133.077 77.559 133.227 77.367C133.397 77.175 133.483 76.8657 133.483 76.439V66.839C133.483 66.4337 133.344 66.1457 133.067 65.975C132.811 65.783 132.331 65.687 131.627 65.687V64.791C132.053 64.791 132.693 64.6417 133.547 64.343C134.421 64.023 135.083 63.7244 135.531 63.447L136.107 63.319V67.287C136.875 65.6017 137.749 64.4924 138.731 63.959C139.712 63.4044 141.163 63.127 143.083 63.127L142.891 66.839H141.931C141.931 66.5404 141.813 66.2524 141.579 65.975C141.365 65.6977 141.013 65.559 140.523 65.559C139.456 65.559 138.453 66.135 137.515 67.287C136.576 68.439 136.107 69.5484 136.107 70.615V76.247C136.107 76.5884 136.117 76.8337 136.139 76.983C136.181 77.1324 136.309 77.2817 136.523 77.431C136.736 77.5804 137.067 77.655 137.515 77.655H138.539V78.551ZM145.91 77.015V57.431C145.91 57.0257 145.771 56.7377 145.494 56.567C145.238 56.375 144.758 56.279 144.054 56.279V55.383C144.523 55.383 145.184 55.2657 146.038 55.031C146.912 54.7964 147.552 54.551 147.958 54.295L148.534 54.167V67.415C148.96 66.1777 149.675 65.1644 150.678 64.375C151.68 63.5857 152.918 63.191 154.39 63.191C155.883 63.191 157.056 63.6817 157.91 64.663C158.784 65.623 159.222 66.9244 159.222 68.567C159.222 71.575 158.432 74.071 156.854 76.055C155.275 78.0177 153.334 78.999 151.03 78.999C150.219 78.999 149.28 78.7537 148.214 78.263C147.168 77.7724 146.4 77.3564 145.91 77.015ZM148.534 69.975V75.671C148.726 76.055 149.024 76.407 149.43 76.727C150.198 77.303 150.923 77.591 151.606 77.591C153.142 77.591 154.432 76.855 155.478 75.383C156.523 73.8897 157.046 72.023 157.046 69.783C157.046 68.503 156.662 67.447 155.894 66.615C155.147 65.783 154.187 65.367 153.014 65.367C151.862 65.367 150.827 66.0177 149.91 67.319C148.992 68.599 148.534 69.4844 148.534 69.975ZM167.926 78.999C166.048 78.999 164.48 78.295 163.222 76.887C161.963 75.479 161.334 73.8364 161.334 71.959C161.334 69.5697 162.23 67.511 164.022 65.783C165.835 64.055 167.744 63.191 169.75 63.191C171.755 63.191 173.366 63.9057 174.582 65.335C175.819 66.743 176.438 68.375 176.438 70.231C176.438 72.5564 175.574 74.6044 173.846 76.375C172.139 78.1244 170.166 78.999 167.926 78.999ZM163.574 70.231C163.574 72.215 164.171 73.8684 165.366 75.191C166.582 76.4924 167.936 77.143 169.43 77.143C170.944 77.143 172.128 76.5777 172.982 75.447C173.835 74.3164 174.262 73.1537 174.262 71.959C174.262 70.1457 173.696 68.567 172.566 67.223C171.456 65.8577 170.102 65.175 168.502 65.175C166.902 65.175 165.675 65.719 164.822 66.807C163.99 67.8737 163.574 69.015 163.574 70.231Z" fill="#ADD8E6"/>
</svg>
